<svg version="1.1" xmlns="http://www.w3.org/2000/svg" viewBox="0 0 822.0431273371375 500.41055630522396" width="822.0431273371375" height="500.41055630522396" filter="invert(93%) hue-rotate(180deg)" class="excalidraw-svg">
  <!-- svg-source:excalidraw -->
  
  <defs>
    <style class="style-fonts">
      @font-face {
        font-family: "Virgil";
        src: url("https://excalidraw.com/Virgil.woff2");
      }
      @font-face {
        font-family: "Cascadia";
        src: url("https://excalidraw.com/Cascadia.woff2");
      }
      @font-face {
        font-family: "Assistant";
        src: url("https://excalidraw.com/Assistant-Regular.woff2");
      }
    </style>
    
  </defs>
  <rect x="0" y="0" width="822.0431273371375" height="500.41055630522396" fill="#ffffff"/><g transform="translate(87.85209193997008 46.12467811169654) rotate(6.6906572348804705 8 47.5)" stroke="none"><path fill="#f08c00" d="M 0.98,0.15 Q 0.98,0.15 0.65,3.92 0.32,7.70 -1.63,15.12 -3.59,22.55 -7.28,40.86 -10.97,59.17 -12.83,69.26 -14.69,79.35 -15.48,85.89 -16.28,92.43 -16.61,95.52 -16.95,98.61 -17.00,98.80 -17.04,98.98 -17.13,99.14 -17.22,99.31 -17.34,99.45 -17.46,99.59 -17.62,99.70 -17.77,99.80 -17.95,99.87 -18.12,99.94 -18.31,99.96 -18.50,99.98 -18.68,99.96 -18.87,99.94 -19.04,99.87 -19.22,99.81 -19.37,99.70 -19.53,99.59 -19.65,99.45 -19.78,99.31 -19.86,99.15 -19.95,98.98 -20.00,98.80 -20.04,98.62 -20.04,98.43 -20.04,98.24 -17.00,87.08 -13.95,75.92 -11.24,62.93 -8.52,49.95 -4.78,34.04 -1.03,18.13 1.15,10.45 3.34,2.78 5.09,0.71 6.84,-1.34 6.92,-1.52 6.99,-1.69 7.10,-1.84 7.22,-2.00 7.36,-2.12 7.51,-2.24 7.68,-2.32 7.85,-2.40 8.04,-2.44 8.22,-2.48 8.41,-2.47 8.60,-2.47 8.79,-2.42 8.97,-2.36 9.14,-2.27 9.30,-2.18 9.44,-2.04 9.58,-1.91 9.68,-1.75 9.78,-1.59 9.84,-1.41 9.90,-1.23 9.92,-1.04 9.93,-0.85 9.91,-0.67 9.88,-0.48 11.35,0.49 12.82,1.46 16.32,15.14 19.82,28.82 22.66,42.00 25.50,55.18 27.29,63.94 29.07,72.71 30.96,79.53 32.85,86.36 33.95,90.13 35.04,93.91 35.49,95.81 35.94,97.70 36.05,98.00 36.17,98.29 36.19,98.47 36.21,98.65 36.19,98.83 36.17,99.02 36.10,99.19 36.04,99.36 35.94,99.51 35.83,99.66 35.70,99.78 35.56,99.90 35.40,99.98 35.24,100.07 35.06,100.11 34.88,100.15 34.70,100.15 34.52,100.15 34.34,100.11 34.17,100.06 34.00,99.98 33.84,99.90 33.71,99.77 33.57,99.65 33.47,99.50 33.36,99.35 33.30,99.18 33.24,99.01 32.20,97.55 31.17,96.09 29.27,93.32 27.38,90.56 27.33,90.46 27.28,90.37 27.26,90.26 27.24,90.16 27.26,90.06 27.27,89.95 27.32,89.86 27.37,89.76 27.45,89.69 27.52,89.61 27.62,89.57 27.71,89.52 27.82,89.51 27.93,89.50 28.03,89.52 28.13,89.54 28.23,89.59 28.32,89.65 28.39,89.73 28.46,89.81 28.50,89.90 28.54,90.00 28.54,90.11 28.55,90.21 28.52,90.32 28.50,90.42 28.44,90.51 28.38,90.60 28.30,90.66 28.21,90.73 28.11,90.76 28.01,90.80 27.91,90.80 27.80,90.80 27.70,90.77 27.60,90.74 27.51,90.67 27.43,90.61 27.37,90.52 27.31,90.44 27.28,90.33 27.25,90.23 27.25,90.12 27.26,90.02 27.29,89.92 27.33,89.82 27.40,89.74 27.47,89.66 27.56,89.60 27.65,89.54 27.75,89.52 27.85,89.50 27.96,89.51 28.07,89.52 28.16,89.56 28.26,89.60 28.34,89.68 28.42,89.75 28.42,89.75 28.42,89.75 30.62,92.23 32.82,94.71 34.50,96.50 36.17,98.29 36.19,98.47 36.21,98.65 36.19,98.83 36.17,99.02 36.10,99.19 36.04,99.36 35.94,99.51 35.83,99.65 35.70,99.78 35.56,99.90 35.40,99.98 35.24,100.07 35.06,100.11 34.88,100.15 34.70,100.15 34.52,100.15 34.34,100.11 34.17,100.06 34.00,99.98 33.84,99.90 33.71,99.77 33.57,99.65 33.47,99.50 33.36,99.35 33.30,99.18 33.24,99.01 32.96,98.85 32.67,98.68 32.19,96.78 31.70,94.88 30.60,91.08 29.50,87.28 27.58,80.34 25.67,73.40 23.89,64.65 22.12,55.91 19.30,42.77 16.48,29.64 13.43,16.57 10.38,3.50 8.61,1.07 6.84,-1.34 6.92,-1.52 6.99,-1.69 7.10,-1.84 7.22,-2.00 7.36,-2.12 7.51,-2.24 7.68,-2.32 7.85,-2.40 8.04,-2.44 8.22,-2.48 8.41,-2.47 8.60,-2.47 8.79,-2.42 8.97,-2.36 9.14,-2.27 9.30,-2.18 9.44,-2.04 9.58,-1.91 9.68,-1.75 9.78,-1.59 9.84,-1.41 9.90,-1.23 9.92,-1.04 9.93,-0.85 9.91,-0.67 9.88,-0.48 8.06,1.62 6.25,3.73 4.10,11.28 1.96,18.84 -1.77,34.71 -5.51,50.58 -8.24,63.66 -10.96,76.74 -13.96,87.68 -16.95,98.61 -17.00,98.80 -17.04,98.98 -17.13,99.14 -17.22,99.31 -17.34,99.45 -17.46,99.59 -17.62,99.70 -17.77,99.80 -17.95,99.87 -18.12,99.94 -18.31,99.96 -18.50,99.98 -18.68,99.96 -18.87,99.94 -19.04,99.87 -19.22,99.81 -19.37,99.70 -19.53,99.59 -19.65,99.45 -19.78,99.31 -19.86,99.15 -19.95,98.98 -20.00,98.80 -20.04,98.62 -20.04,98.43 -20.04,98.24 -19.71,95.15 -19.37,92.06 -18.58,85.42 -17.79,78.78 -15.92,68.66 -14.05,58.55 -10.31,40.15 -6.57,21.75 -4.60,14.49 -2.62,7.24 -1.80,3.54 -0.98,-0.15 -0.95,-0.26 -0.92,-0.38 -0.86,-0.48 -0.80,-0.59 -0.72,-0.68 -0.63,-0.76 -0.53,-0.83 -0.43,-0.89 -0.32,-0.93 -0.20,-0.97 -0.08,-0.98 0.03,-0.99 0.15,-0.97 0.26,-0.96 0.38,-0.91 0.49,-0.86 0.58,-0.79 0.68,-0.72 0.76,-0.63 0.83,-0.54 0.89,-0.43 0.94,-0.32 0.96,-0.20 0.99,-0.08 0.99,0.03 0.98,0.15 0.98,0.15 L 0.98,0.15 Z"/></g><g transform="translate(73.02827318089356 118.43353526159342) rotate(6.6906572348804705 15.5 -1)" stroke="none"><path fill="#f08c00" d="M 0,-1.41 Q 0,-1.41 2.01,-1.50 4.02,-1.58 6.89,-1.59 9.76,-1.60 13.21,-1.87 16.66,-2.14 19.34,-2.19 22.02,-2.23 24.26,-2.32 26.50,-2.40 28.31,-2.48 30.13,-2.56 30.24,-2.55 30.34,-2.55 30.44,-2.51 30.54,-2.47 30.62,-2.40 30.70,-2.33 30.76,-2.24 30.82,-2.15 30.84,-2.05 30.86,-1.94 30.85,-1.84 30.84,-1.73 30.80,-1.64 30.75,-1.54 30.68,-1.46 30.61,-1.38 30.51,-1.33 30.42,-1.28 30.32,-1.27 30.21,-1.25 30.11,-1.26 30.00,-1.28 29.91,-1.33 29.81,-1.38 29.74,-1.46 29.67,-1.53 29.62,-1.63 29.58,-1.72 29.56,-1.83 29.55,-1.94 29.57,-2.04 29.60,-2.14 29.65,-2.24 29.70,-2.33 29.78,-2.40 29.87,-2.46 29.96,-2.50 30.06,-2.54 30.17,-2.55 30.27,-2.56 30.38,-2.53 30.48,-2.50 30.57,-2.44 30.66,-2.38 30.72,-2.30 30.79,-2.22 30.82,-2.11 30.85,-2.01 30.86,-1.91 30.86,-1.80 30.82,-1.70 30.79,-1.60 30.73,-1.52 30.66,-1.43 30.57,-1.37 30.49,-1.31 30.38,-1.28 30.28,-1.25 30.28,-1.25 30.28,-1.25 28.53,-0.92 26.77,-0.59 24.46,0.00 22.15,0.59 19.54,0.79 16.92,0.99 13.34,1.29 9.76,1.60 6.89,1.59 4.02,1.58 2.01,1.50 0,1.41 -0.16,1.39 -0.33,1.37 -0.49,1.31 -0.65,1.25 -0.79,1.15 -0.93,1.05 -1.05,0.93 -1.16,0.80 -1.24,0.65 -1.32,0.50 -1.36,0.33 -1.40,0.17 -1.40,-0.00 -1.40,-0.17 -1.36,-0.33 -1.32,-0.50 -1.24,-0.65 -1.16,-0.80 -1.05,-0.93 -0.93,-1.05 -0.79,-1.15 -0.65,-1.25 -0.49,-1.31 -0.33,-1.37 -0.16,-1.39 0.00,-1.41 0.00,-1.41 L 0,-1.41 Z"/></g><g transform="translate(150.10901282069472 88.62173601229176) rotate(6.6906572348804705 10.5 -2)" stroke="none"><path fill="#f08c00" d="M -0.32,-0.98 Q -0.32,-0.98 0.49,-1.39 1.31,-1.81 4.91,-2.56 8.51,-3.32 11.46,-3.82 14.42,-4.33 16.20,-4.41 17.98,-4.49 19.44,-2.79 20.89,-1.09 20.95,-1.00 21.01,-0.91 21.03,-0.81 21.06,-0.71 21.05,-0.60 21.04,-0.49 21.00,-0.40 20.96,-0.30 20.89,-0.22 20.82,-0.14 20.72,-0.09 20.63,-0.04 20.53,-0.02 20.42,0.00 20.32,-0.01 20.21,-0.02 20.12,-0.07 20.02,-0.12 19.95,-0.19 19.87,-0.27 19.82,-0.36 19.78,-0.46 19.76,-0.56 19.75,-0.67 19.77,-0.77 19.79,-0.88 19.84,-0.97 19.89,-1.06 19.97,-1.13 20.05,-1.20 20.15,-1.25 20.24,-1.29 20.35,-1.30 20.46,-1.31 20.56,-1.28 20.66,-1.25 20.75,-1.20 20.84,-1.14 20.91,-1.06 20.98,-0.98 21.01,-0.88 21.05,-0.78 21.05,-0.67 21.06,-0.56 21.02,-0.46 20.99,-0.36 20.93,-0.27 20.87,-0.19 20.78,-0.13 20.70,-0.06 20.60,-0.03 20.49,-0.00 20.39,-0.00 20.28,-0.01 20.18,-0.04 20.08,-0.08 20.00,-0.15 19.92,-0.21 19.92,-0.21 19.92,-0.21 18.69,-1.49 17.46,-2.77 16.18,-2.35 14.89,-1.94 11.97,-1.28 9.04,-0.61 5.59,0.02 2.13,0.66 1.23,0.82 0.32,0.98 0.20,1.00 0.08,1.03 -0.04,1.02 -0.16,1.02 -0.28,0.98 -0.40,0.95 -0.51,0.88 -0.62,0.82 -0.71,0.74 -0.80,0.65 -0.86,0.54 -0.93,0.44 -0.97,0.32 -1.01,0.20 -1.02,0.08 -1.03,-0.04 -1.01,-0.16 -0.99,-0.28 -0.94,-0.40 -0.89,-0.51 -0.82,-0.61 -0.74,-0.71 -0.64,-0.79 -0.55,-0.87 -0.43,-0.92 -0.32,-0.98 -0.32,-0.98 L -0.32,-0.98 Z"/></g><g transform="translate(151.46032375355384 109.93453853111299) rotate(6.6906572348804705 10.5 -0.5)" stroke="none"><path fill="#f08c00" d="M -0.09,-0.93 Q -0.09,-0.93 2.75,-1.44 5.61,-1.96 8.30,-2.05 11.00,-2.14 13.01,-2.12 15.02,-2.09 17.47,-1.86 19.91,-1.64 20.02,-1.62 20.12,-1.61 20.22,-1.56 20.31,-1.51 20.39,-1.43 20.46,-1.36 20.51,-1.26 20.55,-1.16 20.56,-1.06 20.58,-0.95 20.56,-0.85 20.53,-0.75 20.48,-0.65 20.43,-0.56 20.35,-0.49 20.27,-0.42 20.17,-0.38 20.07,-0.34 19.96,-0.33 19.86,-0.33 19.76,-0.35 19.65,-0.38 19.56,-0.44 19.48,-0.50 19.41,-0.58 19.34,-0.67 19.31,-0.77 19.27,-0.87 19.27,-0.97 19.27,-1.08 19.30,-1.18 19.34,-1.28 19.40,-1.37 19.46,-1.45 19.55,-1.51 19.64,-1.57 19.74,-1.60 19.84,-1.63 19.95,-1.63 20.05,-1.62 20.15,-1.59 20.25,-1.55 20.33,-1.48 20.42,-1.41 20.47,-1.32 20.53,-1.23 20.55,-1.13 20.58,-1.02 20.57,-0.92 20.56,-0.81 20.51,-0.72 20.47,-0.62 20.40,-0.54 20.33,-0.46 20.23,-0.41 20.14,-0.36 20.03,-0.34 19.93,-0.32 19.93,-0.32 19.93,-0.32 17.50,-0.03 15.08,0.25 13.10,0.37 11.12,0.50 8.50,0.65 5.88,0.81 2.99,0.87 0.09,0.93 -0.01,0.93 -0.13,0.93 -0.24,0.90 -0.35,0.87 -0.45,0.82 -0.55,0.76 -0.63,0.68 -0.71,0.61 -0.78,0.51 -0.84,0.42 -0.88,0.31 -0.92,0.20 -0.93,0.09 -0.94,-0.02 -0.92,-0.13 -0.91,-0.24 -0.86,-0.35 -0.82,-0.45 -0.75,-0.54 -0.69,-0.64 -0.60,-0.71 -0.51,-0.78 -0.41,-0.83 -0.31,-0.88 -0.20,-0.91 -0.09,-0.93 -0.09,-0.93 L -0.09,-0.93 Z"/></g><g transform="translate(232.52596695542232 41.13443997025436) rotate(6.6906572348804705 -19 96.5)" stroke="none"><path fill="#f08c00" d="M 0,0.95 Q 0,0.95 -0.86,1.17 -1.72,1.39 -2.95,1.42 -4.17,1.45 -5.72,1.74 -7.27,2.04 -16.12,2.53 -24.97,3.03 -32.99,3.49 -41.02,3.96 -45.89,4.17 -50.75,4.38 -52.99,4.42 -55.23,4.47 -54.95,5.19 -54.66,5.91 -53.70,8.28 -52.75,10.65 -51.15,16.10 -49.55,21.54 -48.29,27.34 -47.03,33.13 -45.62,46.30 -44.21,59.47 -42.76,72.21 -41.30,84.95 -40.40,93.53 -39.49,102.12 -38.53,110.36 -37.57,118.59 -36.88,124.69 -36.18,130.78 -34.74,138.48 -33.31,146.18 -32.10,153.82 -30.90,161.45 -30.39,166.17 -29.88,170.89 -29.38,174.27 -28.88,177.66 -28.11,180.44 -27.35,183.23 -27.00,185.10 -26.64,186.98 -26.26,187.85 -25.89,188.73 -25.66,189.59 -25.44,190.45 -24.49,190.41 -23.54,190.36 -20.88,190.00 -18.22,189.63 -13.06,188.90 -7.90,188.18 -3.10,187.58 1.69,186.98 5.73,186.45 9.77,185.92 12.69,185.78 15.62,185.64 17.95,185.63 20.29,185.62 20.39,185.59 20.49,185.55 20.60,185.55 20.71,185.56 20.81,185.59 20.91,185.63 20.99,185.69 21.08,185.76 21.13,185.85 21.19,185.93 21.22,186.04 21.25,186.14 21.24,186.25 21.23,186.35 21.19,186.45 21.15,186.55 21.08,186.63 21.01,186.71 20.92,186.76 20.83,186.81 20.72,186.84 20.62,186.86 20.51,186.84 20.41,186.83 20.31,186.79 20.22,186.74 20.14,186.67 20.06,186.59 20.02,186.50 19.97,186.40 19.95,186.30 19.94,186.19 19.95,186.09 19.97,185.98 20.02,185.89 20.08,185.80 20.15,185.73 20.23,185.65 20.33,185.61 20.43,185.57 20.53,185.56 20.64,185.55 20.74,185.57 20.84,185.59 20.93,185.65 21.02,185.71 21.09,185.79 21.16,185.87 21.20,185.97 21.24,186.07 21.24,186.18 21.24,186.28 21.21,186.38 21.18,186.49 21.12,186.57 21.06,186.66 20.98,186.72 20.89,186.79 20.89,186.79 20.89,186.79 18.39,187.91 15.89,189.03 13.08,189.35 10.27,189.67 6.21,190.22 2.16,190.78 -2.59,191.38 -7.36,191.97 -12.53,192.70 -17.70,193.43 -20.40,193.80 -23.10,194.16 -25.17,194.19 -27.24,194.22 -28.02,193.46 -28.79,192.70 -28.94,192.03 -29.10,191.36 -29.24,190.75 -29.38,190.14 -29.86,188.91 -30.34,187.68 -30.66,185.95 -30.97,184.21 -31.78,181.21 -32.59,178.21 -33.10,174.75 -33.61,171.29 -34.10,166.66 -34.60,162.03 -35.78,154.44 -36.96,146.86 -38.41,139.03 -39.86,131.20 -40.56,125.11 -41.25,119.02 -42.21,110.76 -43.17,102.51 -44.08,93.94 -44.98,85.37 -46.44,72.61 -47.89,59.86 -49.26,46.89 -50.63,33.91 -51.85,28.24 -53.07,22.57 -54.60,17.28 -56.14,11.98 -57.14,9.37 -58.14,6.76 -58.27,5.24 -58.41,3.71 -57.11,2.49 -55.81,1.28 -53.35,1.15 -50.89,1.03 -46.05,0.85 -41.21,0.66 -33.17,0.21 -25.12,-0.24 -16.45,-0.56 -7.77,-0.89 -5.98,-1.17 -4.18,-1.45 -2.95,-1.42 -1.72,-1.39 -0.86,-1.17 0,-0.95 0.11,-0.94 0.22,-0.92 0.33,-0.88 0.44,-0.84 0.53,-0.78 0.63,-0.71 0.71,-0.63 0.78,-0.54 0.84,-0.44 0.89,-0.33 0.92,-0.22 0.95,-0.11 0.95,0.00 0.95,0.11 0.92,0.22 0.89,0.33 0.84,0.44 0.78,0.54 0.71,0.63 0.63,0.71 0.53,0.78 0.44,0.84 0.33,0.88 0.22,0.92 0.11,0.94 -0.00,0.95 -0.00,0.95 L 0,0.95 Z"/></g><g transform="translate(226.8590365182381 57.79060527935195) rotate(6.6906572348804705 4 26.5)" stroke="none"><path fill="#f08c00" d="M 0.93,-0.08 Q 0.93,-0.08 1.60,3.04 2.28,6.16 2.69,10.08 3.11,14.00 4.45,21.36 5.78,28.71 6.64,33.59 7.50,38.48 8.17,41.97 8.84,45.47 9.12,47.28 9.41,49.08 8.60,49.62 7.79,50.16 7.80,50.24 7.80,50.32 7.78,50.39 7.77,50.47 7.73,50.54 7.70,50.61 7.65,50.67 7.60,50.74 7.53,50.78 7.47,50.83 7.40,50.86 7.32,50.89 7.24,50.90 7.17,50.91 7.09,50.91 7.01,50.90 6.93,50.87 6.86,50.85 6.79,50.81 6.73,50.76 6.67,50.71 6.62,50.65 6.58,50.58 6.54,50.51 6.52,50.43 6.50,50.36 6.50,50.37 6.50,50.38 6.50,50.28 6.49,50.17 6.52,50.07 6.56,49.97 6.62,49.88 6.68,49.79 6.77,49.73 6.85,49.67 6.95,49.64 7.05,49.61 7.16,49.61 7.27,49.61 7.37,49.65 7.47,49.69 7.55,49.75 7.63,49.82 7.69,49.91 7.75,50.00 7.77,50.10 7.80,50.20 7.79,50.31 7.78,50.42 7.74,50.51 7.70,50.61 7.63,50.69 7.56,50.77 7.46,50.82 7.37,50.87 7.27,50.89 7.16,50.91 7.06,50.90 6.95,50.89 6.86,50.84 6.76,50.79 6.69,50.72 6.61,50.64 6.56,50.55 6.52,50.45 6.50,50.35 6.49,50.24 6.51,50.14 6.53,50.03 6.58,49.94 6.63,49.85 6.71,49.78 6.79,49.71 6.89,49.66 6.99,49.62 7.09,49.61 7.20,49.60 7.30,49.63 7.40,49.65 7.49,49.71 7.58,49.77 7.65,49.85 7.72,49.93 7.75,50.05 7.79,50.16 7.80,50.24 7.80,50.32 7.78,50.39 7.77,50.47 7.73,50.54 7.70,50.61 7.65,50.67 7.60,50.74 7.53,50.78 7.47,50.83 7.40,50.86 7.32,50.89 7.24,50.90 7.17,50.91 7.09,50.91 7.01,50.90 6.93,50.87 6.86,50.85 6.79,50.81 6.73,50.76 6.67,50.71 6.62,50.65 6.58,50.58 6.54,50.51 6.52,50.43 6.50,50.36 6.13,50.00 5.76,49.65 5.50,47.89 5.23,46.14 4.60,42.61 3.97,39.09 3.13,34.21 2.29,29.34 0.98,21.85 -0.32,14.36 -0.72,10.42 -1.13,6.48 -1.03,3.28 -0.93,0.08 -0.93,-0.02 -0.92,-0.14 -0.89,-0.25 -0.86,-0.35 -0.81,-0.45 -0.75,-0.55 -0.67,-0.63 -0.60,-0.72 -0.50,-0.78 -0.41,-0.84 -0.30,-0.88 -0.19,-0.91 -0.08,-0.92 0.02,-0.93 0.14,-0.92 0.25,-0.90 0.35,-0.86 0.46,-0.81 0.55,-0.75 0.64,-0.68 0.71,-0.59 0.78,-0.51 0.83,-0.40 0.88,-0.30 0.91,-0.19 0.93,-0.08 0.93,-0.08 L 0.93,-0.08 Z"/></g><g transform="translate(222.0384395257095 156.9054157495657) rotate(6.6906572348804705 21.5 21)" stroke="none"><path fill="#f08c00" d="M -0.36,-0.90 Q -0.36,-0.90 0.95,-1.78 2.27,-2.65 7.61,-3.80 12.95,-4.95 16.68,-5.43 20.41,-5.91 23.39,-5.25 26.38,-4.59 27.44,-2.06 28.51,0.47 26.82,5.85 25.12,11.24 22.93,15.74 20.73,20.24 18.39,25.00 16.04,29.76 14.49,33.16 12.93,36.56 12.90,39.10 12.86,41.64 13.43,42.63 14.00,43.63 15.99,43.97 17.97,44.30 20.84,44.54 23.70,44.78 27.16,44.60 30.61,44.43 32.60,44.08 34.58,43.73 37.96,43.28 41.34,42.83 41.44,42.81 41.55,42.80 41.65,42.82 41.76,42.83 41.85,42.89 41.94,42.94 42.01,43.02 42.08,43.10 42.13,43.19 42.17,43.29 42.18,43.40 42.19,43.50 42.16,43.61 42.14,43.71 42.08,43.80 42.02,43.89 41.94,43.96 41.86,44.02 41.76,44.06 41.66,44.10 41.55,44.10 41.45,44.10 41.34,44.07 41.24,44.04 41.16,43.98 41.07,43.92 41.01,43.83 40.95,43.75 40.91,43.65 40.88,43.54 40.88,43.44 40.89,43.33 40.92,43.23 40.96,43.13 41.02,43.05 41.09,42.97 41.18,42.91 41.27,42.85 41.37,42.82 41.48,42.80 41.58,42.81 41.69,42.81 41.79,42.86 41.88,42.90 41.96,42.97 42.04,43.04 42.09,43.13 42.15,43.22 42.17,43.33 42.19,43.43 42.17,43.54 42.16,43.64 42.11,43.74 42.07,43.83 41.99,43.91 41.92,43.98 41.82,44.03 41.73,44.08 41.73,44.08 41.73,44.08 38.47,45.70 35.20,47.32 33.00,47.69 30.79,48.07 27.08,48.23 23.37,48.40 20.20,48.09 17.03,47.78 14.29,46.82 11.56,45.86 10.48,43.81 9.41,41.76 9.56,38.49 9.72,35.21 11.31,31.71 12.91,28.20 15.28,23.46 17.64,18.73 19.77,14.43 21.89,10.12 23.59,5.61 25.30,1.10 24.88,-0.70 24.47,-2.51 22.63,-2.60 20.79,-2.69 17.21,-2.23 13.63,-1.77 8.55,-0.70 3.47,0.35 1.91,0.63 0.36,0.90 0.24,0.93 0.13,0.96 0.01,0.96 -0.09,0.96 -0.21,0.93 -0.32,0.91 -0.43,0.86 -0.53,0.80 -0.62,0.73 -0.71,0.65 -0.78,0.56 -0.85,0.46 -0.89,0.35 -0.93,0.24 -0.95,0.13 -0.96,0.01 -0.95,-0.09 -0.94,-0.21 -0.90,-0.32 -0.86,-0.43 -0.80,-0.53 -0.73,-0.63 -0.65,-0.70 -0.56,-0.78 -0.46,-0.84 -0.36,-0.90 -0.36,-0.90 L -0.36,-0.90 Z"/></g><g transform="translate(300.25399673706886 80.92613673843789) rotate(6.6906572348804705 18 -3.5)" stroke="none"><path fill="#f08c00" d="M -0.25,-1.03 Q -0.25,-1.03 0.83,-1.54 1.92,-2.06 3.56,-2.49 5.19,-2.93 7.34,-3.41 9.50,-3.90 12.75,-4.42 16.00,-4.93 18.78,-5.43 21.56,-5.93 24.48,-6.44 27.40,-6.95 29.55,-7.18 31.71,-7.40 33.38,-7.39 35.05,-7.38 35.16,-7.40 35.26,-7.41 35.37,-7.40 35.47,-7.38 35.57,-7.33 35.66,-7.27 35.73,-7.20 35.80,-7.12 35.85,-7.02 35.89,-6.92 35.90,-6.82 35.91,-6.71 35.88,-6.61 35.86,-6.51 35.80,-6.42 35.75,-6.33 35.66,-6.26 35.58,-6.19 35.48,-6.15 35.38,-6.11 35.28,-6.11 35.17,-6.11 35.07,-6.14 34.97,-6.17 34.88,-6.23 34.79,-6.29 34.73,-6.37 34.67,-6.46 34.64,-6.56 34.60,-6.66 34.61,-6.77 34.61,-6.87 34.64,-6.97 34.68,-7.07 34.74,-7.16 34.81,-7.24 34.90,-7.30 34.99,-7.36 35.09,-7.39 35.19,-7.41 35.30,-7.40 35.40,-7.40 35.50,-7.36 35.60,-7.32 35.68,-7.25 35.76,-7.18 35.81,-7.08 35.87,-6.99 35.89,-6.89 35.91,-6.78 35.90,-6.68 35.88,-6.57 35.84,-6.48 35.79,-6.38 35.72,-6.30 35.64,-6.23 35.55,-6.18 35.45,-6.13 35.45,-6.13 35.45,-6.13 33.76,-5.05 32.07,-3.96 30.02,-3.77 27.97,-3.57 25.06,-3.08 22.15,-2.60 19.33,-2.11 16.50,-1.63 13.34,-1.17 10.18,-0.72 8.07,-0.29 5.96,0.14 4.31,0.52 2.67,0.91 1.46,0.97 0.25,1.03 0.13,1.05 0.00,1.06 -0.12,1.05 -0.25,1.03 -0.37,0.99 -0.49,0.94 -0.60,0.87 -0.70,0.80 -0.79,0.70 -0.87,0.61 -0.93,0.49 -0.99,0.38 -1.02,0.25 -1.06,0.13 -1.06,0.00 -1.06,-0.12 -1.03,-0.25 -1.00,-0.37 -0.94,-0.49 -0.88,-0.60 -0.79,-0.70 -0.71,-0.79 -0.60,-0.87 -0.49,-0.94 -0.37,-0.99 -0.25,-1.03 -0.25,-1.03 L -0.25,-1.03 Z"/></g><g transform="translate(345.262813320424 46.66767209402502) rotate(6.6906572348804705 5.5 24)" stroke="none"><path fill="#f08c00" d="M 0.93,-0.31 Q 0.93,-0.31 1.78,1.32 2.62,2.95 3.46,5.09 4.29,7.22 4.98,10.87 5.68,14.51 6.25,17.43 6.81,20.35 7.64,23.86 8.46,27.37 9.10,30.33 9.74,33.28 10.03,35.77 10.32,38.25 10.72,40.04 11.12,41.84 11.54,42.83 11.96,43.82 10.87,45.87 9.78,47.93 9.71,48.01 9.65,48.09 9.56,48.15 9.47,48.21 9.37,48.24 9.27,48.27 9.16,48.26 9.05,48.25 8.96,48.21 8.86,48.17 8.78,48.11 8.70,48.04 8.64,47.94 8.59,47.85 8.57,47.75 8.54,47.64 8.56,47.54 8.57,47.43 8.61,47.34 8.66,47.24 8.73,47.17 8.81,47.09 8.90,47.04 9.00,46.99 9.10,46.97 9.21,46.96 9.31,46.98 9.41,46.99 9.51,47.04 9.60,47.09 9.67,47.17 9.75,47.25 9.79,47.35 9.83,47.44 9.85,47.55 9.86,47.65 9.83,47.76 9.81,47.86 9.75,47.95 9.70,48.04 9.62,48.11 9.53,48.18 9.44,48.22 9.34,48.26 9.23,48.26 9.12,48.27 9.02,48.24 8.92,48.21 8.83,48.15 8.75,48.09 8.68,48.00 8.62,47.92 8.58,47.82 8.55,47.72 8.55,47.61 8.55,47.50 8.59,47.40 8.62,47.30 8.62,47.30 8.62,47.30 8.65,46.13 8.67,44.95 8.18,43.77 7.68,42.58 7.28,40.61 6.87,38.64 6.62,36.32 6.38,34.00 5.75,31.07 5.13,28.14 4.33,24.56 3.53,20.98 2.98,18.04 2.43,15.10 1.86,11.72 1.28,8.35 0.47,6.14 -0.32,3.94 -0.63,2.12 -0.93,0.31 -0.95,0.19 -0.98,0.07 -0.97,-0.03 -0.97,-0.15 -0.93,-0.27 -0.90,-0.38 -0.84,-0.48 -0.78,-0.59 -0.70,-0.67 -0.62,-0.76 -0.52,-0.82 -0.42,-0.89 -0.30,-0.92 -0.19,-0.96 -0.07,-0.97 0.04,-0.98 0.15,-0.96 0.27,-0.94 0.38,-0.89 0.49,-0.85 0.58,-0.78 0.68,-0.71 0.75,-0.61 0.83,-0.52 0.88,-0.41 0.93,-0.31 0.93,-0.31 L 0.93,-0.31 Z"/></g><g transform="translate(307.2441091750287 183.38689471237944) rotate(6.6906572348804705 17.5 -2.5)" stroke="none"><path fill="#f08c00" d="M 0,-1.16 Q 0,-1.16 1.15,-1.33 2.3,-1.51 3.65,-1.55 5.00,-1.58 7.79,-1.92 10.58,-2.25 14.08,-2.67 17.59,-3.09 20.79,-3.56 23.99,-4.04 26.77,-4.52 29.55,-5.00 31.91,-5.16 34.26,-5.32 34.36,-5.36 34.46,-5.40 34.57,-5.41 34.67,-5.41 34.78,-5.38 34.88,-5.35 34.97,-5.29 35.05,-5.23 35.12,-5.15 35.18,-5.06 35.21,-4.96 35.25,-4.86 35.25,-4.76 35.25,-4.65 35.21,-4.55 35.18,-4.45 35.11,-4.37 35.05,-4.28 34.96,-4.22 34.87,-4.16 34.77,-4.13 34.67,-4.11 34.56,-4.11 34.46,-4.12 34.36,-4.16 34.26,-4.20 34.18,-4.27 34.10,-4.34 34.04,-4.43 33.99,-4.52 33.97,-4.62 33.94,-4.73 33.96,-4.83 33.97,-4.94 34.01,-5.03 34.06,-5.13 34.13,-5.21 34.20,-5.28 34.30,-5.33 34.39,-5.38 34.50,-5.40 34.60,-5.42 34.71,-5.40 34.81,-5.38 34.91,-5.33 35.00,-5.28 35.07,-5.20 35.14,-5.13 35.19,-5.03 35.23,-4.93 35.24,-4.83 35.26,-4.72 35.23,-4.62 35.21,-4.51 35.15,-4.42 35.10,-4.33 35.02,-4.26 34.94,-4.20 34.94,-4.20 34.94,-4.20 32.54,-2.88 30.14,-1.56 27.31,-1.08 24.48,-0.59 21.23,-0.14 17.99,0.30 14.45,0.70 10.91,1.10 7.96,1.34 5.00,1.58 3.65,1.55 2.3,1.51 1.15,1.33 0,1.16 -0.13,1.14 -0.27,1.12 -0.40,1.07 -0.54,1.02 -0.65,0.95 -0.77,0.87 -0.86,0.76 -0.95,0.66 -1.02,0.53 -1.08,0.41 -1.12,0.27 -1.15,0.14 -1.15,-0.00 -1.15,-0.14 -1.12,-0.27 -1.08,-0.41 -1.02,-0.53 -0.95,-0.66 -0.86,-0.76 -0.77,-0.87 -0.65,-0.95 -0.54,-1.02 -0.40,-1.07 -0.27,-1.12 -0.13,-1.14 0.00,-1.16 0.00,-1.16 L 0,-1.16 Z"/></g><g transform="translate(339.90807778831675 150.92032907927887) rotate(6.6906572348804705 33 18.5)" stroke="none"><path fill="#f08c00" d="M -0.24,-0.85 Q -0.24,-0.85 1.66,-1.80 3.56,-2.75 7.34,-3.60 11.12,-4.44 14.45,-5.08 17.79,-5.72 21.66,-5.72 25.53,-5.71 28.17,-5.11 30.81,-4.50 33.04,-3.17 35.27,-1.84 36.37,1.30 37.47,4.45 37.27,7.66 37.07,10.87 34.32,17.53 31.57,24.19 29.87,28.89 28.16,33.58 27.43,35.70 26.70,37.82 27.00,38.43 27.29,39.04 29.18,39.26 31.08,39.49 36.47,39.69 41.86,39.90 45.92,40.06 49.99,40.21 52.74,39.85 55.49,39.49 60.12,38.27 64.75,37.06 64.86,37.04 64.96,37.02 65.07,37.04 65.17,37.06 65.26,37.11 65.36,37.16 65.43,37.23 65.50,37.31 65.55,37.41 65.59,37.50 65.60,37.61 65.62,37.72 65.59,37.82 65.57,37.92 65.51,38.01 65.46,38.10 65.38,38.17 65.30,38.24 65.20,38.28 65.10,38.32 64.99,38.33 64.89,38.33 64.79,38.30 64.68,38.28 64.60,38.22 64.51,38.16 64.44,38.07 64.38,37.99 64.35,37.89 64.31,37.79 64.31,37.68 64.31,37.57 64.35,37.47 64.38,37.37 64.44,37.29 64.51,37.20 64.60,37.14 64.68,37.08 64.79,37.05 64.89,37.03 65.00,37.03 65.10,37.04 65.20,37.08 65.30,37.12 65.38,37.19 65.46,37.25 65.52,37.35 65.57,37.44 65.59,37.54 65.62,37.64 65.60,37.75 65.59,37.86 65.55,37.95 65.50,38.05 65.43,38.13 65.36,38.20 65.26,38.25 65.17,38.30 65.17,38.30 65.17,38.30 60.57,40.19 55.97,42.08 52.95,42.78 49.92,43.49 45.82,43.45 41.71,43.42 35.99,43.16 30.27,42.91 27.67,42.06 25.06,41.21 24.25,39.29 23.44,37.37 24.17,34.89 24.90,32.40 26.63,27.63 28.36,22.85 30.98,16.69 33.61,10.54 33.87,7.94 34.13,5.34 33.62,2.95 33.11,0.56 31.54,-0.32 29.98,-1.21 27.74,-1.77 25.50,-2.33 21.96,-2.36 18.41,-2.39 15.13,-1.76 11.84,-1.13 8.16,-0.33 4.48,0.45 2.36,0.65 0.24,0.85 0.13,0.87 0.03,0.88 -0.07,0.88 -0.18,0.87 -0.28,0.83 -0.38,0.80 -0.47,0.74 -0.56,0.68 -0.63,0.61 -0.71,0.53 -0.76,0.43 -0.82,0.34 -0.85,0.24 -0.87,0.13 -0.88,0.03 -0.88,-0.07 -0.86,-0.18 -0.84,-0.28 -0.79,-0.38 -0.75,-0.47 -0.68,-0.56 -0.61,-0.64 -0.52,-0.70 -0.44,-0.77 -0.34,-0.81 -0.24,-0.85 -0.24,-0.85 L -0.24,-0.85 Z"/></g><g transform="translate(365.70039129552123 24.935184709469183) rotate(6.6906572348804705 52.5 106)" stroke="none"><path fill="#f08c00" d="M 0.42,-0.84 Q 0.42,-0.84 1.73,-0.60 3.04,-0.36 6.24,0.37 9.43,1.10 16.23,2.01 23.04,2.91 29.07,3.30 35.10,3.68 41.43,4.14 47.77,4.59 52.16,4.78 56.55,4.97 59.56,5.05 62.57,5.13 64.71,5.16 66.85,5.20 68.61,5.35 70.38,5.50 71.47,6.57 72.56,7.64 73.25,9.37 73.93,11.11 74.76,13.49 75.58,15.88 76.84,22.48 78.10,29.08 79.19,35.58 80.29,42.09 81.33,48.00 82.37,53.91 83.97,61.86 85.56,69.82 86.82,76.97 88.08,84.12 89.19,92.07 90.31,100.02 91.07,106.57 91.83,113.12 92.44,118.48 93.05,123.85 93.32,129.64 93.58,135.44 93.70,139.90 93.81,144.37 93.86,148.57 93.91,152.78 94.49,157.61 95.08,162.45 95.61,165.05 96.14,167.65 96.65,169.91 97.16,172.18 97.66,173.97 98.15,175.75 98.63,177.03 99.11,178.30 99.84,179.61 100.57,180.92 100.93,181.90 101.29,182.88 102.20,184.27 103.10,185.65 103.51,186.24 103.93,186.83 104.24,187.65 104.56,188.47 104.69,189.17 104.82,189.87 105.40,191.69 105.98,193.51 106.26,194.70 106.54,195.88 106.87,196.67 107.20,197.47 106.71,198.67 106.23,199.88 104.94,200.32 103.65,200.77 100.50,201.66 97.36,202.56 90.24,204.66 83.11,206.77 77.45,208.21 71.78,209.65 66.65,210.25 61.51,210.86 59.39,211.37 57.28,211.88 57.17,211.89 57.06,211.89 56.96,211.87 56.86,211.84 56.77,211.78 56.68,211.73 56.61,211.64 56.55,211.56 56.51,211.46 56.48,211.36 56.47,211.25 56.47,211.15 56.50,211.05 56.54,210.94 56.60,210.86 56.66,210.77 56.75,210.71 56.83,210.65 56.94,210.62 57.04,210.59 57.14,210.59 57.25,210.60 57.35,210.63 57.45,210.67 57.53,210.74 57.61,210.80 57.67,210.89 57.73,210.98 57.75,211.09 57.78,211.19 57.77,211.30 57.76,211.40 57.71,211.50 57.67,211.60 57.60,211.68 57.53,211.75 57.44,211.81 57.34,211.86 57.24,211.88 57.13,211.90 57.03,211.88 56.92,211.87 56.83,211.82 56.73,211.77 56.66,211.70 56.59,211.62 56.54,211.52 56.49,211.43 56.48,211.32 56.47,211.22 56.49,211.11 56.51,211.01 56.56,210.92 56.61,210.83 56.69,210.75 56.77,210.68 56.87,210.64 56.97,210.60 56.97,210.60 56.97,210.60 59.08,210.09 61.20,209.58 66.01,207.78 70.82,205.98 76.40,204.47 81.98,202.96 89.13,200.84 96.27,198.71 99.66,197.76 103.04,196.81 103.58,196.98 104.11,197.16 103.86,197.71 103.61,198.26 103.15,197.54 102.68,196.81 102.44,195.75 102.20,194.70 101.55,192.61 100.91,190.52 100.77,189.77 100.62,189.02 100.06,188.16 99.50,187.31 99.25,186.58 99.00,185.86 98.35,185.15 97.71,184.45 97.40,183.63 97.09,182.82 96.24,181.25 95.39,179.69 94.87,178.25 94.34,176.81 93.82,174.93 93.30,173.05 92.78,170.74 92.25,168.43 91.70,165.68 91.15,162.92 90.55,157.87 89.95,152.82 89.90,148.65 89.85,144.47 89.75,140.04 89.64,135.62 89.39,129.95 89.13,124.29 88.53,118.93 87.92,113.57 87.16,107.07 86.41,100.56 85.31,92.68 84.21,84.80 82.97,77.69 81.72,70.58 80.14,62.58 78.55,54.58 77.52,48.65 76.48,42.72 75.40,36.25 74.32,29.78 73.16,23.44 72.01,17.10 71.21,14.75 70.42,12.39 69.99,11.09 69.56,9.78 69.38,9.11 69.21,8.45 68.00,8.57 66.79,8.69 64.63,8.65 62.47,8.62 59.43,8.53 56.39,8.45 51.96,8.25 47.52,8.06 41.20,7.60 34.88,7.15 28.73,6.75 22.58,6.35 15.60,5.41 8.61,4.47 5.08,3.56 1.55,2.66 0.56,1.75 -0.42,0.84 -0.51,0.78 -0.61,0.72 -0.69,0.63 -0.77,0.55 -0.82,0.45 -0.88,0.35 -0.90,0.24 -0.93,0.13 -0.94,0.01 -0.94,-0.09 -0.91,-0.20 -0.89,-0.31 -0.84,-0.42 -0.79,-0.52 -0.71,-0.61 -0.64,-0.69 -0.55,-0.76 -0.45,-0.83 -0.35,-0.87 -0.24,-0.91 -0.13,-0.93 -0.01,-0.94 0.09,-0.93 0.20,-0.92 0.31,-0.88 0.42,-0.84 0.42,-0.84 L 0.42,-0.84 Z"/></g><g transform="translate(28.7114672988356 286.75944592984354) rotate(6.6906572348804705 31.5 46.99999999999999)" stroke="none"><path fill="#f08c00" d="M 0.86,0.04 Q 0.86,0.04 1.02,6.09 1.18,12.15 1.08,18.72 0.97,25.29 0.66,33.86 0.34,42.43 -0.07,49.82 -0.49,57.21 -0.96,66.09 -1.42,74.96 -1.62,80.45 -1.82,85.93 -1.90,87.70 -1.99,89.46 -2.03,89.68 -2.06,89.90 -2.15,90.11 -2.24,90.32 -2.37,90.50 -2.51,90.68 -2.68,90.83 -2.86,90.97 -3.06,91.07 -3.27,91.17 -3.49,91.21 -3.71,91.26 -3.94,91.25 -4.16,91.24 -4.38,91.18 -4.60,91.12 -4.80,91.01 -4.99,90.89 -5.16,90.74 -5.32,90.58 -5.44,90.39 -5.56,90.20 -5.64,89.99 -5.71,89.77 -5.73,89.55 -5.75,89.32 -5.77,84.36 -5.80,79.40 -5.81,73.82 -5.82,68.24 -5.24,60.63 -4.66,53.01 -4.13,46.63 -3.60,40.26 -2.21,33.14 -0.82,26.02 0.04,21.60 0.92,17.18 1.60,14.92 2.28,12.66 2.84,11.46 3.41,10.25 3.49,10.05 3.58,9.85 3.72,9.67 3.85,9.50 4.03,9.36 4.20,9.22 4.40,9.13 4.60,9.04 4.82,9.00 5.03,8.95 5.25,8.97 5.47,8.98 5.68,9.04 5.90,9.11 6.09,9.22 6.28,9.33 6.43,9.49 6.59,9.64 6.70,9.83 6.82,10.02 6.89,10.23 6.95,10.44 6.97,10.66 6.98,10.88 6.95,11.10 6.91,11.31 7.61,10.89 8.31,10.46 10.13,12.32 11.96,14.19 14.99,17.83 18.02,21.47 21.30,25.29 24.58,29.10 29.44,34.74 34.30,40.38 42.42,50.27 50.54,60.15 54.87,65.81 59.20,71.47 61.87,75.03 64.55,78.59 65.22,79.66 65.89,80.73 65.98,80.89 66.07,81.04 66.12,81.21 66.17,81.38 66.18,81.55 66.19,81.73 66.15,81.90 66.12,82.07 66.04,82.23 65.97,82.39 65.86,82.53 65.75,82.67 65.61,82.77 65.47,82.88 65.30,82.95 65.14,83.02 64.97,83.05 64.79,83.08 64.62,83.06 64.44,83.05 64.28,83.00 64.11,82.94 63.96,82.85 63.81,82.75 63.69,82.63 63.57,82.50 62.74,80.33 61.92,78.16 61.89,78.07 61.85,77.97 61.84,77.86 61.84,77.75 61.87,77.65 61.89,77.55 61.96,77.46 62.02,77.37 62.10,77.31 62.19,77.25 62.29,77.21 62.39,77.18 62.49,77.18 62.60,77.18 62.70,77.22 62.80,77.25 62.88,77.32 62.97,77.38 63.03,77.47 63.09,77.56 63.11,77.66 63.14,77.76 63.14,77.87 63.13,77.98 63.09,78.07 63.05,78.17 62.98,78.25 62.91,78.33 62.82,78.39 62.73,78.44 62.62,78.46 62.52,78.49 62.41,78.47 62.31,78.46 62.21,78.42 62.12,78.37 62.04,78.30 61.96,78.22 61.91,78.13 61.86,78.03 61.85,77.93 61.83,77.82 61.85,77.72 61.87,77.62 61.92,77.52 61.97,77.43 62.05,77.36 62.12,77.28 62.22,77.24 62.32,77.20 62.42,77.19 62.53,77.17 62.63,77.20 62.74,77.22 62.83,77.28 62.92,77.33 62.99,77.41 63.05,77.50 63.05,77.50 63.05,77.50 64.47,79.12 65.89,80.73 65.98,80.89 66.07,81.04 66.12,81.21 66.17,81.38 66.18,81.55 66.19,81.73 66.15,81.90 66.12,82.07 66.04,82.23 65.97,82.39 65.86,82.53 65.75,82.67 65.61,82.77 65.47,82.88 65.30,82.95 65.14,83.02 64.97,83.05 64.80,83.08 64.62,83.06 64.44,83.05 64.28,83.00 64.11,82.94 63.96,82.85 63.81,82.75 63.69,82.63 63.57,82.50 62.53,81.71 61.49,80.92 58.78,77.39 56.07,73.86 51.79,68.25 47.51,62.64 39.44,52.77 31.37,42.90 26.53,37.23 21.70,31.57 18.42,27.72 15.13,23.87 12.19,20.31 9.25,16.75 7.83,15.20 6.42,13.65 4.91,11.95 3.41,10.25 3.49,10.05 3.58,9.85 3.72,9.67 3.85,9.50 4.03,9.36 4.20,9.22 4.40,9.13 4.60,9.04 4.82,9.00 5.03,8.95 5.25,8.97 5.47,8.98 5.68,9.04 5.90,9.11 6.09,9.22 6.28,9.33 6.43,9.49 6.59,9.64 6.70,9.83 6.82,10.02 6.89,10.23 6.95,10.44 6.97,10.66 6.98,10.88 6.95,11.10 6.91,11.31 6.34,12.52 5.77,13.73 5.13,15.81 4.50,17.88 3.62,22.30 2.75,26.72 1.39,33.64 0.03,40.56 -0.48,46.92 -1.01,53.29 -1.56,60.76 -2.12,68.23 -2.10,73.80 -2.08,79.37 -2.04,84.42 -1.99,89.46 -2.03,89.68 -2.06,89.90 -2.15,90.11 -2.24,90.32 -2.37,90.50 -2.51,90.68 -2.68,90.83 -2.86,90.97 -3.06,91.07 -3.27,91.17 -3.49,91.21 -3.71,91.26 -3.94,91.25 -4.16,91.24 -4.38,91.18 -4.60,91.12 -4.79,91.01 -4.99,90.89 -5.16,90.74 -5.32,90.58 -5.44,90.39 -5.56,90.20 -5.64,89.99 -5.71,89.77 -5.73,89.55 -5.75,89.32 -5.66,87.56 -5.58,85.80 -5.38,80.28 -5.18,74.76 -4.70,65.88 -4.22,56.99 -3.78,49.63 -3.33,42.28 -2.97,33.75 -2.61,25.22 -2.47,18.60 -2.33,11.99 -1.59,5.97 -0.86,-0.04 -0.84,-0.14 -0.82,-0.24 -0.78,-0.34 -0.74,-0.43 -0.68,-0.51 -0.61,-0.60 -0.53,-0.66 -0.45,-0.73 -0.36,-0.77 -0.26,-0.81 -0.16,-0.83 -0.06,-0.85 0.04,-0.85 0.14,-0.84 0.24,-0.82 0.34,-0.79 0.43,-0.73 0.52,-0.68 0.59,-0.61 0.67,-0.54 0.72,-0.45 0.78,-0.36 0.81,-0.26 0.84,-0.16 0.85,-0.06 0.86,0.04 0.86,0.04 L 0.86,0.04 Z"/></g><g transform="translate(10.292371501520563 339.9291833428865) rotate(6.6906572348804705 25.5 -4)" stroke="none"><path fill="#f08c00" d="M 0,-1.03 Q 0,-1.03 1.72,-1.38 3.44,-1.73 5.61,-1.75 7.78,-1.78 18.39,-3.02 28.99,-4.27 35.28,-5.36 41.57,-6.46 44.24,-7.08 46.90,-7.71 47.01,-7.72 47.12,-7.72 47.22,-7.70 47.32,-7.67 47.41,-7.61 47.50,-7.55 47.57,-7.47 47.63,-7.39 47.67,-7.28 47.70,-7.18 47.70,-7.08 47.70,-6.97 47.67,-6.87 47.64,-6.77 47.58,-6.68 47.51,-6.60 47.43,-6.54 47.34,-6.48 47.24,-6.45 47.14,-6.42 47.03,-6.42 46.92,-6.43 46.82,-6.46 46.72,-6.50 46.64,-6.57 46.56,-6.64 46.50,-6.73 46.45,-6.82 46.42,-6.92 46.40,-7.02 46.41,-7.13 46.42,-7.24 46.46,-7.33 46.51,-7.43 46.58,-7.51 46.65,-7.59 46.74,-7.64 46.84,-7.69 46.94,-7.71 47.05,-7.73 47.15,-7.71 47.26,-7.69 47.35,-7.65 47.45,-7.60 47.52,-7.52 47.59,-7.45 47.64,-7.35 47.69,-7.25 47.70,-7.15 47.71,-7.04 47.69,-6.94 47.67,-6.83 47.61,-6.74 47.56,-6.65 47.48,-6.58 47.40,-6.51 47.30,-6.47 47.20,-6.43 47.20,-6.43 47.21,-6.43 44.54,-5.80 41.87,-5.18 35.62,-3.32 29.37,-1.47 18.58,0.15 7.79,1.78 5.62,1.75 3.44,1.73 1.72,1.38 0,1.03 -0.12,1.01 -0.24,1.00 -0.36,0.95 -0.48,0.91 -0.58,0.84 -0.68,0.77 -0.76,0.68 -0.85,0.58 -0.90,0.47 -0.96,0.36 -0.99,0.24 -1.02,0.12 -1.02,-0.00 -1.02,-0.12 -0.99,-0.24 -0.96,-0.36 -0.90,-0.47 -0.85,-0.58 -0.76,-0.68 -0.68,-0.77 -0.58,-0.84 -0.48,-0.91 -0.36,-0.95 -0.24,-1.00 -0.12,-1.01 0.00,-1.03 0.00,-1.03 L 0,-1.03 Z"/></g><g transform="translate(70.47615380350823 258.0316666707855) rotate(6.6906572348804705 4 18.5)" stroke="none"><path fill="#f08c00" d="M 0.98,0.19 Q 0.98,0.19 1.08,1.70 1.18,3.20 1.37,4.71 1.56,6.22 2.49,9.70 3.41,13.18 4.38,16.41 5.35,19.63 6.36,23.04 7.36,26.44 8.07,28.73 8.78,31.02 8.76,32.08 8.74,33.14 8.75,33.22 8.76,33.30 8.76,33.38 8.75,33.45 8.73,33.53 8.71,33.61 8.67,33.67 8.62,33.74 8.57,33.80 8.51,33.85 8.44,33.89 8.38,33.93 8.30,33.96 8.22,33.98 8.15,33.98 8.07,33.99 7.99,33.97 7.91,33.96 7.84,33.93 7.77,33.89 7.70,33.84 7.64,33.80 7.59,33.73 7.55,33.67 7.51,33.60 7.48,33.53 7.47,33.43 7.45,33.33 7.47,33.23 7.49,33.12 7.54,33.03 7.59,32.94 7.66,32.86 7.74,32.79 7.84,32.75 7.93,32.70 8.04,32.69 8.14,32.68 8.25,32.70 8.35,32.72 8.44,32.78 8.53,32.83 8.60,32.91 8.67,32.99 8.71,33.09 8.75,33.19 8.76,33.30 8.76,33.40 8.73,33.51 8.70,33.61 8.65,33.70 8.59,33.78 8.50,33.85 8.42,33.91 8.32,33.95 8.21,33.98 8.11,33.98 8.00,33.98 7.90,33.95 7.80,33.91 7.72,33.85 7.63,33.78 7.57,33.70 7.51,33.61 7.48,33.51 7.46,33.40 7.46,33.30 7.47,33.19 7.51,33.09 7.55,32.99 7.62,32.91 7.68,32.83 7.78,32.78 7.87,32.72 7.97,32.70 8.07,32.68 8.18,32.69 8.28,32.70 8.38,32.75 8.48,32.79 8.55,32.86 8.63,32.94 8.68,33.03 8.73,33.12 8.73,33.13 8.74,33.14 8.75,33.22 8.76,33.30 8.76,33.38 8.75,33.45 8.73,33.53 8.71,33.61 8.67,33.67 8.62,33.74 8.57,33.80 8.51,33.85 8.44,33.89 8.38,33.93 8.30,33.96 8.22,33.98 8.15,33.98 8.07,33.99 7.99,33.97 7.91,33.96 7.84,33.93 7.77,33.89 7.70,33.84 7.64,33.80 7.59,33.73 7.55,33.67 7.51,33.60 7.48,33.53 6.30,32.84 5.12,32.14 4.41,29.82 3.71,27.50 2.74,24.10 1.77,20.70 0.80,17.40 -0.16,14.10 -1.11,10.33 -2.05,6.57 -2.19,4.55 -2.33,2.54 -1.66,1.17 -0.98,-0.19 -0.94,-0.31 -0.91,-0.42 -0.84,-0.53 -0.78,-0.63 -0.69,-0.71 -0.60,-0.80 -0.50,-0.86 -0.39,-0.92 -0.28,-0.95 -0.16,-0.99 -0.04,-0.99 0.07,-1.00 0.19,-0.98 0.31,-0.95 0.42,-0.90 0.53,-0.85 0.62,-0.77 0.72,-0.70 0.79,-0.60 0.87,-0.50 0.91,-0.39 0.96,-0.28 0.98,-0.16 1.00,-0.04 0.99,0.07 0.98,0.19 0.98,0.19 L 0.98,0.19 Z"/></g><g transform="translate(48.87820461816034 258.9382610480519) rotate(6.6906572348804705 26 -3)" stroke="none"><path fill="#f08c00" d="M 0,-0.92 Q 0,-0.92 0.86,-1.37 1.72,-1.83 3.81,-1.84 5.90,-1.86 8.23,-1.87 10.55,-1.87 18.34,-2.73 26.13,-3.59 31.19,-4.24 36.25,-4.90 38.60,-5.45 40.96,-6.00 42.95,-6.26 44.95,-6.52 46.38,-6.62 47.81,-6.73 48.68,-6.77 49.56,-6.81 51.02,-6.68 52.49,-6.55 52.60,-6.56 52.70,-6.57 52.81,-6.54 52.91,-6.51 53.00,-6.45 53.09,-6.39 53.15,-6.31 53.22,-6.23 53.25,-6.13 53.29,-6.02 53.29,-5.92 53.29,-5.81 53.25,-5.71 53.22,-5.61 53.16,-5.53 53.09,-5.44 53.01,-5.38 52.92,-5.32 52.82,-5.29 52.71,-5.26 52.61,-5.27 52.50,-5.27 52.40,-5.31 52.30,-5.35 52.22,-5.42 52.14,-5.48 52.09,-5.57 52.03,-5.67 52.01,-5.77 51.98,-5.87 51.99,-5.98 52.00,-6.08 52.05,-6.18 52.09,-6.28 52.16,-6.36 52.24,-6.43 52.33,-6.48 52.42,-6.53 52.53,-6.55 52.63,-6.57 52.74,-6.55 52.84,-6.54 52.94,-6.49 53.03,-6.44 53.11,-6.36 53.18,-6.29 53.22,-6.19 53.27,-6.09 53.28,-5.99 53.29,-5.88 53.27,-5.78 53.25,-5.68 53.20,-5.58 53.14,-5.49 53.06,-5.42 52.98,-5.35 52.88,-5.31 52.78,-5.27 52.78,-5.27 52.78,-5.27 51.32,-4.16 49.85,-3.05 48.97,-3.00 48.09,-2.96 46.76,-2.86 45.42,-2.76 43.61,-2.54 41.80,-2.32 39.27,-1.74 36.73,-1.16 31.63,-0.51 26.54,0.14 18.55,1.01 10.56,1.87 8.23,1.87 5.90,1.86 3.81,1.84 1.72,1.83 0.86,1.37 0,0.92 -0.11,0.90 -0.22,0.89 -0.32,0.85 -0.42,0.81 -0.52,0.75 -0.61,0.69 -0.68,0.60 -0.75,0.52 -0.81,0.42 -0.86,0.32 -0.88,0.21 -0.91,0.11 -0.91,-0.00 -0.91,-0.11 -0.88,-0.21 -0.86,-0.32 -0.81,-0.42 -0.75,-0.52 -0.68,-0.60 -0.61,-0.69 -0.52,-0.75 -0.42,-0.81 -0.32,-0.85 -0.22,-0.89 -0.11,-0.90 0.00,-0.92 0.00,-0.92 L 0,-0.92 Z"/></g><g transform="translate(135.71944429118224 329.5153447009207) rotate(6.6906572348804705 17 1)" stroke="none"><path fill="#f08c00" d="M 0.19,-0.97 Q 0.19,-0.97 1.69,-1.02 3.20,-1.08 5.70,-0.98 8.20,-0.88 11.58,-0.83 14.97,-0.77 20.75,-0.14 26.53,0.48 28.97,0.81 31.41,1.14 31.51,1.17 31.62,1.19 31.71,1.25 31.80,1.30 31.87,1.38 31.94,1.46 31.98,1.56 32.02,1.66 32.02,1.77 32.03,1.87 32.00,1.97 31.97,2.08 31.91,2.16 31.85,2.25 31.77,2.32 31.68,2.38 31.58,2.41 31.48,2.45 31.37,2.45 31.27,2.45 31.17,2.41 31.07,2.38 30.98,2.32 30.90,2.25 30.84,2.16 30.78,2.08 30.75,1.97 30.72,1.87 30.73,1.77 30.73,1.66 30.77,1.56 30.81,1.46 30.88,1.38 30.95,1.30 31.04,1.25 31.13,1.19 31.23,1.17 31.34,1.14 31.44,1.16 31.55,1.17 31.65,1.21 31.74,1.26 31.82,1.33 31.90,1.40 31.95,1.50 32.00,1.59 32.01,1.70 32.03,1.80 32.01,1.91 32.00,2.01 31.95,2.10 31.90,2.20 31.82,2.27 31.74,2.34 31.65,2.39 31.55,2.43 31.44,2.44 31.34,2.46 31.34,2.46 31.34,2.46 28.88,2.52 26.42,2.59 20.67,2.61 14.92,2.62 11.48,2.57 8.04,2.52 5.29,2.37 2.54,2.23 1.17,1.60 -0.19,0.97 -0.30,0.93 -0.42,0.89 -0.52,0.83 -0.62,0.77 -0.70,0.68 -0.79,0.59 -0.85,0.49 -0.91,0.39 -0.94,0.27 -0.97,0.16 -0.98,0.04 -0.98,-0.07 -0.96,-0.19 -0.94,-0.31 -0.89,-0.41 -0.84,-0.52 -0.76,-0.61 -0.68,-0.71 -0.59,-0.78 -0.49,-0.85 -0.38,-0.90 -0.27,-0.95 -0.16,-0.97 -0.04,-0.99 0.07,-0.98 0.19,-0.97 0.19,-0.97 L 0.19,-0.97 Z"/></g><g transform="translate(138.62174592321554 356.5096338954811) rotate(6.6906572348804705 12.5 0.5)" stroke="none"><path fill="#f08c00" d="M 0.16,-0.96 Q 0.16,-0.96 1.95,-1.07 3.74,-1.17 6.38,-1.07 9.02,-0.96 11.31,-0.90 13.61,-0.84 16.02,-0.72 18.43,-0.60 21.12,-0.13 23.81,0.33 23.91,0.35 24.02,0.37 24.11,0.42 24.21,0.47 24.28,0.55 24.35,0.62 24.40,0.72 24.44,0.82 24.45,0.92 24.46,1.03 24.44,1.13 24.42,1.24 24.36,1.33 24.30,1.42 24.22,1.49 24.14,1.55 24.04,1.59 23.94,1.63 23.84,1.64 23.73,1.64 23.63,1.61 23.53,1.58 23.44,1.52 23.35,1.46 23.29,1.38 23.22,1.29 23.19,1.19 23.16,1.09 23.16,0.99 23.16,0.88 23.19,0.78 23.23,0.68 23.29,0.59 23.36,0.51 23.45,0.45 23.53,0.39 23.64,0.36 23.74,0.34 23.84,0.34 23.95,0.35 24.05,0.39 24.15,0.43 24.23,0.50 24.31,0.57 24.36,0.66 24.42,0.75 24.44,0.85 24.46,0.96 24.45,1.06 24.44,1.17 24.39,1.26 24.35,1.36 24.27,1.44 24.20,1.51 24.11,1.56 24.01,1.61 23.91,1.63 23.80,1.65 23.80,1.65 23.80,1.65 21.10,2.09 18.40,2.53 15.97,2.61 13.53,2.68 11.19,2.64 8.86,2.60 6.01,2.46 3.15,2.32 1.49,1.64 -0.16,0.96 -0.27,0.93 -0.38,0.90 -0.49,0.84 -0.59,0.78 -0.67,0.69 -0.76,0.61 -0.82,0.51 -0.88,0.41 -0.92,0.30 -0.96,0.19 -0.97,0.07 -0.98,-0.04 -0.96,-0.16 -0.94,-0.27 -0.89,-0.38 -0.84,-0.49 -0.77,-0.58 -0.70,-0.68 -0.61,-0.75 -0.52,-0.83 -0.41,-0.88 -0.30,-0.93 -0.19,-0.95 -0.07,-0.97 0.04,-0.97 0.16,-0.96 0.16,-0.96 L 0.16,-0.96 Z"/></g><g transform="translate(241.78260816901073 271.8652952730947) rotate(6.6906572348804705 -2.5 97.5)" stroke="none"><path fill="#f08c00" d="M 0,1.03 Q 0,1.03 -0.86,1.36 -1.72,1.68 -3.52,1.69 -5.33,1.70 -7.24,1.71 -9.16,1.72 -11.13,1.72 -13.09,1.72 -16.51,1.73 -19.93,1.73 -22.74,2.02 -25.55,2.31 -28.26,2.44 -30.97,2.58 -32.55,2.90 -34.12,3.23 -34.99,3.26 -35.85,3.29 -35.54,5.12 -35.24,6.94 -34.62,11.75 -33.99,16.55 -33.15,21.75 -32.32,26.95 -30.81,34.31 -29.31,41.67 -27.51,52.32 -25.71,62.97 -24.37,72.69 -23.02,82.40 -21.87,91.42 -20.73,100.43 -19.66,109.15 -18.60,117.87 -17.85,124.75 -17.10,131.63 -16.79,134.85 -16.47,138.06 -16.34,139.73 -16.20,141.40 -16.14,142.41 -16.08,143.42 -16.06,144.15 -16.03,144.88 -16.02,145.78 -16.01,146.68 -16.00,147.63 -16.00,148.59 -16.00,149.85 -16.00,151.12 -15.99,152.52 -15.99,153.92 -15.99,155.09 -15.99,156.26 -15.99,157.91 -15.99,159.55 -15.73,160.61 -15.47,161.67 -14.77,164.49 -14.08,167.32 -13.76,169.79 -13.44,172.26 -13.03,174.96 -12.62,177.66 -12.18,179.29 -11.74,180.92 -11.52,182.96 -11.29,185.00 -11.21,186.11 -11.12,187.23 -10.81,188.72 -10.50,190.22 -10.36,191.25 -10.21,192.28 -11.00,192.22 -11.79,192.16 -11.19,192.07 -10.60,191.97 -2.99,191.69 4.61,191.40 10.12,191.00 15.64,190.59 20.30,190.43 24.97,190.26 28.24,190.36 31.51,190.46 31.62,190.47 31.73,190.48 31.82,190.52 31.92,190.56 32.00,190.63 32.08,190.70 32.13,190.80 32.19,190.89 32.21,190.99 32.23,191.10 32.21,191.20 32.20,191.31 32.15,191.40 32.11,191.50 32.03,191.57 31.96,191.65 31.86,191.70 31.77,191.74 31.66,191.76 31.56,191.77 31.45,191.76 31.35,191.74 31.25,191.68 31.16,191.63 31.09,191.55 31.02,191.47 30.98,191.38 30.93,191.28 30.92,191.17 30.92,191.07 30.94,190.96 30.97,190.86 31.02,190.77 31.08,190.68 31.16,190.62 31.24,190.55 31.34,190.51 31.44,190.47 31.55,190.47 31.66,190.47 31.76,190.50 31.86,190.53 31.95,190.59 32.03,190.65 32.09,190.74 32.16,190.82 32.19,190.93 32.22,191.03 32.22,191.13 32.22,191.24 32.18,191.34 32.14,191.44 32.08,191.52 32.01,191.60 31.92,191.66 31.83,191.72 31.73,191.75 31.63,191.77 31.63,191.77 31.63,191.77 28.44,192.43 25.25,193.09 20.59,193.85 15.93,194.60 10.35,195.02 4.76,195.43 -2.94,195.72 -10.64,196.00 -11.51,195.88 -12.37,195.75 -13.28,194.30 -14.19,192.84 -14.31,191.92 -14.44,191.00 -14.78,189.27 -15.12,187.54 -15.20,186.48 -15.28,185.41 -15.45,183.68 -15.62,181.95 -16.10,180.11 -16.59,178.27 -17.00,175.51 -17.42,172.76 -17.70,170.51 -17.97,168.27 -18.67,165.41 -19.37,162.55 -19.69,161.06 -20.00,159.57 -20.00,157.92 -20.00,156.27 -20.00,155.10 -20.00,153.93 -20.00,152.53 -20.00,151.13 -20.00,149.87 -20.00,148.60 -20.01,147.66 -20.01,146.72 -20.02,145.87 -20.03,145.02 -20.05,144.33 -20.07,143.65 -20.13,142.68 -20.18,141.72 -20.31,140.08 -20.44,138.45 -20.76,135.25 -21.07,132.06 -21.80,125.20 -22.53,118.35 -23.59,109.64 -24.64,100.93 -25.78,91.94 -26.92,82.94 -28.25,73.28 -29.57,63.62 -31.35,53.03 -33.13,42.45 -34.64,35.01 -36.15,27.57 -36.99,22.30 -37.83,17.04 -38.44,12.09 -39.06,7.15 -39.01,4.69 -38.97,2.24 -38.06,1.26 -37.15,0.28 -35.98,0.02 -34.81,-0.23 -32.98,-0.59 -31.14,-0.94 -28.51,-1.05 -25.89,-1.16 -22.91,-1.45 -19.94,-1.73 -16.51,-1.73 -13.09,-1.72 -11.13,-1.72 -9.16,-1.72 -7.24,-1.71 -5.33,-1.70 -3.52,-1.69 -1.72,-1.68 -0.86,-1.36 0,-1.03 0.12,-1.02 0.24,-1.00 0.36,-0.96 0.48,-0.91 0.58,-0.84 0.68,-0.77 0.77,-0.68 0.85,-0.59 0.91,-0.47 0.97,-0.36 1.00,-0.24 1.03,-0.12 1.03,0.00 1.03,0.12 1.00,0.24 0.97,0.36 0.91,0.47 0.85,0.59 0.77,0.68 0.68,0.77 0.58,0.84 0.48,0.91 0.36,0.96 0.24,1.00 0.12,1.02 -0.00,1.03 -0.00,1.03 L 0,1.03 Z"/></g><g transform="translate(260.8853514395621 300.67706596742056) rotate(6.6906572348804705 4.5 35.00000000000001)" stroke="none"><path fill="#f08c00" d="M 0.69,0 Q 0.69,0 1.10,1.43 1.51,2.87 1.56,4.34 1.60,5.82 1.96,10.70 2.32,15.59 3.34,22.79 4.36,30.00 5.67,38.24 6.98,46.48 7.82,51.12 8.66,55.76 9.03,58.96 9.40,62.15 9.25,64.24 9.11,66.34 9.20,66.39 9.29,66.44 9.36,66.52 9.43,66.60 9.48,66.70 9.52,66.80 9.52,66.90 9.53,67.01 9.51,67.11 9.48,67.21 9.42,67.30 9.36,67.39 9.28,67.46 9.20,67.52 9.10,67.56 9.00,67.60 8.89,67.60 8.79,67.60 8.68,67.57 8.58,67.54 8.50,67.47 8.41,67.41 8.35,67.33 8.29,67.24 8.26,67.14 8.23,67.04 8.23,66.93 8.23,66.82 8.27,66.72 8.31,66.62 8.38,66.54 8.44,66.46 8.53,66.40 8.62,66.35 8.73,66.32 8.83,66.30 8.94,66.31 9.04,66.32 9.14,66.36 9.24,66.40 9.31,66.47 9.39,66.54 9.44,66.64 9.50,66.73 9.52,66.83 9.53,66.94 9.52,67.04 9.50,67.15 9.46,67.24 9.41,67.34 9.33,67.41 9.26,67.49 9.16,67.53 9.07,67.58 8.96,67.59 8.86,67.61 8.75,67.59 8.65,67.57 8.65,67.57 8.65,67.57 7.10,65.07 5.55,62.58 5.21,59.51 4.87,56.44 4.05,51.75 3.22,47.07 1.97,38.78 0.72,30.49 -0.22,23.14 -1.17,15.80 -1.39,10.81 -1.60,5.82 -1.56,4.34 -1.51,2.87 -1.10,1.43 -0.69,0 -0.68,-0.08 -0.67,-0.16 -0.64,-0.24 -0.61,-0.32 -0.56,-0.39 -0.51,-0.45 -0.45,-0.51 -0.39,-0.56 -0.31,-0.60 -0.24,-0.64 -0.16,-0.66 -0.08,-0.68 0.00,-0.68 0.08,-0.68 0.16,-0.66 0.24,-0.64 0.31,-0.60 0.39,-0.56 0.45,-0.51 0.51,-0.45 0.56,-0.39 0.61,-0.32 0.64,-0.24 0.67,-0.16 0.68,-0.08 0.69,0.00 0.69,0.00 L 0.69,0 Z"/></g><g transform="translate(375.0767345078259 305.2953207613747) rotate(6.6906572348804705 24.5 28)" stroke="none"><path fill="#f08c00" d="M 0,-0.91 Q 0,-0.91 3.44,-1.34 6.89,-1.78 13.54,-1.78 20.18,-1.78 24.94,-0.88 29.69,0.00 32.17,2.56 34.65,5.12 32.36,10.01 30.07,14.90 27.29,19.00 24.51,23.10 21.91,26.82 19.31,30.54 16.50,34.96 13.70,39.38 12.26,42.34 10.82,45.29 9.93,47.60 9.05,49.91 9.21,50.72 9.37,51.53 10.05,51.94 10.73,52.35 12.82,52.81 14.90,53.27 17.51,53.52 20.11,53.76 24.38,53.87 28.64,53.97 34.11,53.44 39.57,52.90 43.42,53.19 47.27,53.48 47.38,53.49 47.48,53.50 47.58,53.54 47.68,53.58 47.76,53.65 47.84,53.72 47.89,53.81 47.94,53.91 47.96,54.01 47.98,54.12 47.97,54.22 47.95,54.33 47.91,54.42 47.86,54.52 47.78,54.59 47.71,54.67 47.61,54.72 47.52,54.76 47.41,54.78 47.31,54.79 47.20,54.77 47.10,54.75 47.01,54.70 46.91,54.65 46.84,54.57 46.77,54.49 46.73,54.39 46.69,54.30 46.68,54.19 46.67,54.08 46.70,53.98 46.72,53.88 46.78,53.79 46.84,53.70 46.92,53.63 47.00,53.56 47.10,53.53 47.20,53.49 47.31,53.49 47.41,53.48 47.51,53.52 47.62,53.55 47.70,53.61 47.79,53.67 47.85,53.76 47.91,53.84 47.94,53.94 47.98,54.05 47.97,54.15 47.97,54.26 47.93,54.36 47.90,54.46 47.83,54.54 47.76,54.62 47.68,54.68 47.59,54.74 47.48,54.76 47.38,54.79 47.38,54.79 47.38,54.79 43.65,55.71 39.92,56.64 34.23,57.16 28.54,57.67 24.15,57.54 19.75,57.41 16.85,57.11 13.96,56.80 11.22,55.96 8.47,55.12 7.28,53.83 6.08,52.54 5.87,50.70 5.66,48.86 6.62,46.28 7.58,43.71 9.11,40.58 10.65,37.45 13.50,32.96 16.35,28.47 18.94,24.77 21.52,21.07 24.18,17.18 26.84,13.28 29.24,8.84 31.63,4.39 30.24,3.91 28.85,3.44 24.51,2.61 20.17,1.78 13.53,1.78 6.89,1.78 3.44,1.34 0,0.91 -0.10,0.89 -0.21,0.88 -0.32,0.84 -0.42,0.80 -0.51,0.74 -0.60,0.68 -0.67,0.59 -0.74,0.51 -0.80,0.42 -0.85,0.32 -0.87,0.21 -0.90,0.10 -0.90,-0.00 -0.90,-0.10 -0.87,-0.21 -0.85,-0.32 -0.80,-0.42 -0.74,-0.51 -0.67,-0.59 -0.60,-0.68 -0.51,-0.74 -0.42,-0.80 -0.32,-0.84 -0.21,-0.88 -0.10,-0.89 0.00,-0.91 0.00,-0.91 L 0,-0.91 Z"/></g><g transform="translate(239.72471057181085 432.60922251907004) rotate(6.6906572348804705 19.5 -1.5)" stroke="none"><path fill="#f08c00" d="M 0,-1.35 Q 0,-1.35 2.3,-1.54 4.6,-1.73 8.45,-1.76 12.30,-1.80 16.46,-2.09 20.63,-2.39 24.18,-2.52 27.73,-2.65 30.59,-2.99 33.44,-3.34 35.86,-3.35 38.28,-3.35 38.38,-3.39 38.48,-3.42 38.58,-3.42 38.69,-3.42 38.79,-3.39 38.89,-3.36 38.98,-3.29 39.06,-3.23 39.12,-3.14 39.18,-3.05 39.21,-2.95 39.24,-2.85 39.23,-2.74 39.23,-2.64 39.19,-2.54 39.15,-2.44 39.08,-2.36 39.01,-2.28 38.92,-2.22 38.83,-2.17 38.73,-2.14 38.62,-2.12 38.52,-2.13 38.41,-2.14 38.32,-2.19 38.22,-2.23 38.14,-2.30 38.06,-2.38 38.01,-2.47 37.96,-2.56 37.95,-2.67 37.93,-2.77 37.95,-2.88 37.96,-2.98 38.01,-3.08 38.06,-3.17 38.14,-3.24 38.21,-3.32 38.31,-3.36 38.41,-3.41 38.51,-3.42 38.62,-3.43 38.72,-3.41 38.83,-3.39 38.92,-3.33 39.01,-3.28 39.08,-3.20 39.15,-3.12 39.19,-3.02 39.23,-2.92 39.23,-2.81 39.24,-2.71 39.21,-2.60 39.18,-2.50 39.12,-2.41 39.06,-2.33 38.98,-2.26 38.89,-2.20 38.89,-2.20 38.90,-2.20 36.38,-0.92 33.87,0.34 30.86,0.68 27.85,1.01 24.36,1.12 20.87,1.24 16.59,1.52 12.30,1.80 8.45,1.76 4.6,1.73 2.3,1.54 0,1.35 -0.16,1.33 -0.32,1.31 -0.47,1.26 -0.63,1.20 -0.76,1.11 -0.90,1.01 -1.00,0.89 -1.11,0.77 -1.19,0.62 -1.27,0.48 -1.30,0.32 -1.34,0.16 -1.34,-0.00 -1.34,-0.16 -1.30,-0.32 -1.27,-0.48 -1.19,-0.62 -1.11,-0.77 -1.00,-0.89 -0.90,-1.01 -0.76,-1.11 -0.63,-1.20 -0.47,-1.26 -0.32,-1.31 -0.16,-1.33 0.00,-1.35 0.00,-1.35 L 0,-1.35 Z"/></g><g transform="translate(292.500876092098 402.3308670567322) rotate(6.6906572348804705 7.5 24.5)" stroke="none"><path fill="#f08c00" d="M 0.98,-0.24 Q 0.98,-0.24 1.54,0.83 2.10,1.91 2.88,4.99 3.66,8.06 4.56,12.55 5.47,17.04 6.14,20.38 6.80,23.71 7.95,27.64 9.09,31.57 10.15,34.66 11.20,37.75 11.68,39.75 12.16,41.74 12.62,43.03 13.07,44.32 13.50,45.05 13.93,45.78 14.13,46.44 14.33,47.10 14.42,47.31 14.50,47.52 14.54,47.74 14.57,47.97 14.55,48.19 14.53,48.42 14.45,48.63 14.38,48.85 14.26,49.04 14.13,49.23 13.97,49.39 13.80,49.54 13.60,49.65 13.40,49.76 13.18,49.82 12.96,49.88 12.74,49.89 12.51,49.90 12.29,49.85 12.07,49.80 11.86,49.70 11.66,49.60 11.48,49.45 11.31,49.31 11.18,49.12 11.04,48.94 12.55,47.04 14.06,45.14 14.13,45.07 14.21,45.00 14.31,44.95 14.40,44.91 14.51,44.90 14.61,44.89 14.72,44.91 14.82,44.93 14.91,44.99 15.00,45.04 15.07,45.12 15.14,45.20 15.18,45.30 15.22,45.40 15.23,45.51 15.23,45.61 15.20,45.72 15.17,45.82 15.11,45.91 15.05,45.99 14.97,46.06 14.88,46.12 14.78,46.16 14.68,46.19 14.58,46.19 14.47,46.19 14.37,46.15 14.27,46.12 14.18,46.06 14.10,45.99 14.04,45.90 13.98,45.82 13.95,45.71 13.93,45.61 13.93,45.50 13.94,45.40 13.98,45.30 14.02,45.20 14.09,45.12 14.15,45.04 14.25,44.99 14.34,44.93 14.44,44.91 14.54,44.89 14.65,44.90 14.76,44.91 14.85,44.95 14.95,45.00 15.02,45.07 15.10,45.15 15.15,45.24 15.20,45.33 15.22,45.44 15.23,45.54 15.22,45.65 15.20,45.75 15.15,45.85 15.10,45.94 15.10,45.94 15.10,45.94 14.72,46.52 14.33,47.10 14.42,47.31 14.50,47.52 14.54,47.74 14.57,47.97 14.55,48.19 14.53,48.42 14.45,48.63 14.38,48.85 14.26,49.04 14.13,49.23 13.97,49.39 13.80,49.54 13.60,49.65 13.40,49.76 13.18,49.82 12.96,49.88 12.74,49.89 12.51,49.90 12.29,49.85 12.07,49.80 11.86,49.70 11.66,49.60 11.48,49.45 11.31,49.31 11.18,49.12 11.04,48.94 10.83,48.28 10.61,47.62 10.06,46.59 9.50,45.57 9.00,44.09 8.50,42.61 8.07,40.78 7.65,38.95 6.59,35.77 5.53,32.58 4.38,28.50 3.24,24.41 2.59,21.07 1.94,17.73 1.11,13.28 0.27,8.83 -0.34,5.75 -0.95,2.68 -0.97,1.46 -0.98,0.24 -1.00,0.12 -1.01,0.00 -1.00,-0.11 -0.99,-0.24 -0.94,-0.35 -0.90,-0.47 -0.83,-0.57 -0.76,-0.67 -0.67,-0.75 -0.58,-0.83 -0.47,-0.89 -0.36,-0.95 -0.24,-0.98 -0.12,-1.01 -0.00,-1.01 0.11,-1.01 0.23,-0.98 0.35,-0.95 0.46,-0.89 0.57,-0.84 0.66,-0.75 0.76,-0.67 0.83,-0.57 0.90,-0.47 0.94,-0.36 0.98,-0.24 0.98,-0.24 L 0.98,-0.24 Z"/></g><g transform="translate(366.4021932947301 423.9114624477189) rotate(6.6906572348804705 16 0)" stroke="none"><path fill="#f08c00" d="M 0,-1.02 Q 0,-1.02 1.43,-1.36 2.87,-1.69 5.49,-1.72 8.12,-1.75 11.24,-1.75 14.37,-1.76 17.71,-1.76 21.06,-1.76 23.91,-1.77 26.77,-1.77 28.91,-1.21 31.05,-0.65 31.16,-0.63 31.26,-0.62 31.35,-0.57 31.45,-0.52 31.52,-0.44 31.59,-0.36 31.64,-0.27 31.68,-0.17 31.70,-0.07 31.71,0.03 31.68,0.13 31.66,0.24 31.61,0.33 31.55,0.42 31.47,0.49 31.39,0.56 31.29,0.60 31.19,0.64 31.09,0.64 30.98,0.65 30.88,0.62 30.78,0.59 30.69,0.53 30.60,0.47 30.54,0.39 30.47,0.30 30.44,0.20 30.40,0.10 30.40,-0.00 30.40,-0.10 30.44,-0.20 30.47,-0.30 30.54,-0.39 30.60,-0.47 30.69,-0.53 30.78,-0.59 30.88,-0.62 30.98,-0.65 31.09,-0.64 31.19,-0.64 31.29,-0.60 31.39,-0.56 31.47,-0.49 31.55,-0.42 31.61,-0.33 31.66,-0.24 31.68,-0.13 31.71,-0.03 31.70,0.07 31.68,0.17 31.64,0.27 31.59,0.36 31.52,0.44 31.45,0.52 31.35,0.57 31.26,0.62 31.16,0.63 31.05,0.65 31.05,0.65 31.05,0.65 28.91,1.21 26.77,1.77 23.91,1.77 21.06,1.76 17.71,1.76 14.37,1.76 11.24,1.75 8.12,1.75 5.49,1.72 2.87,1.69 1.43,1.36 0,1.02 -0.12,1.01 -0.24,0.99 -0.36,0.95 -0.47,0.90 -0.57,0.83 -0.68,0.76 -0.76,0.67 -0.84,0.58 -0.90,0.47 -0.96,0.36 -0.99,0.24 -1.02,0.12 -1.02,-0.00 -1.02,-0.12 -0.99,-0.24 -0.96,-0.36 -0.90,-0.47 -0.84,-0.58 -0.76,-0.67 -0.68,-0.76 -0.57,-0.83 -0.47,-0.90 -0.36,-0.95 -0.24,-0.99 -0.12,-1.01 0.00,-1.02 0.00,-1.02 L 0,-1.02 Z"/></g><g transform="translate(412.1995228547595 398.27104034449724) rotate(6.6906572348804705 25 22)" stroke="none"><path fill="#f08c00" d="M 0,-1.04 Q 0,-1.04 1.43,-1.38 2.87,-1.73 4.92,-1.73 6.97,-1.73 9.27,-1.74 11.58,-1.74 14.86,-1.74 18.14,-1.74 20.56,-1.68 22.97,-1.62 24.73,-0.18 26.49,1.24 26.95,3.61 27.41,5.98 26.34,10.01 25.27,14.03 23.63,17.47 21.98,20.91 19.53,24.72 17.07,28.52 15.20,31.51 13.32,34.51 12.28,36.56 11.24,38.61 10.61,39.01 9.99,39.40 12.97,40.13 15.95,40.87 20.24,41.23 24.54,41.58 29.21,41.45 33.89,41.32 37.94,41.26 42.00,41.20 44.00,41.18 46.00,41.16 47.63,40.96 49.26,40.76 49.36,40.70 49.45,40.65 49.55,40.62 49.65,40.60 49.76,40.61 49.86,40.62 49.96,40.67 50.06,40.71 50.14,40.78 50.21,40.86 50.26,40.95 50.31,41.04 50.33,41.15 50.35,41.25 50.33,41.36 50.31,41.46 50.26,41.56 50.21,41.65 50.14,41.72 50.06,41.80 49.96,41.84 49.87,41.89 49.76,41.90 49.66,41.91 49.55,41.89 49.45,41.87 49.36,41.81 49.27,41.76 49.20,41.68 49.13,41.59 49.09,41.50 49.05,41.40 49.04,41.29 49.04,41.19 49.07,41.08 49.09,40.98 49.15,40.89 49.21,40.80 49.30,40.74 49.38,40.68 49.48,40.64 49.58,40.61 49.69,40.61 49.80,40.61 49.90,40.64 50.00,40.67 50.08,40.74 50.17,40.80 50.23,40.89 50.29,40.98 50.31,41.08 50.34,41.18 50.34,41.29 50.33,41.39 50.29,41.49 50.25,41.59 50.19,41.67 50.12,41.75 50.12,41.75 50.12,41.75 48.09,43.33 46.06,44.90 44.05,44.92 42.04,44.94 38.01,44.99 33.98,45.03 29.10,45.14 24.22,45.26 19.57,44.83 14.91,44.40 11.72,43.30 8.52,42.20 8.24,39.62 7.97,37.04 9.10,34.81 10.23,32.58 12.13,29.56 14.02,26.53 16.37,22.93 18.72,19.33 20.27,16.19 21.81,13.04 22.84,9.68 23.86,6.31 23.84,4.83 23.81,3.35 23.08,2.48 22.35,1.62 20.25,1.68 18.14,1.74 14.86,1.74 11.58,1.74 9.27,1.74 6.97,1.73 4.92,1.73 2.87,1.73 1.43,1.38 0,1.04 -0.12,1.02 -0.24,1.01 -0.36,0.96 -0.48,0.92 -0.58,0.85 -0.69,0.78 -0.77,0.68 -0.85,0.59 -0.91,0.48 -0.97,0.37 -1.00,0.24 -1.03,0.12 -1.03,-0.00 -1.03,-0.12 -1.00,-0.24 -0.97,-0.37 -0.91,-0.48 -0.85,-0.59 -0.77,-0.68 -0.69,-0.78 -0.58,-0.85 -0.48,-0.92 -0.36,-0.96 -0.24,-1.01 -0.12,-1.02 0.00,-1.04 0.00,-1.04 L 0,-1.04 Z"/></g><g transform="translate(407.0563417603488 280.0747274779064) rotate(6.6906572348804705 48.5 91)" stroke="none"><path fill="#f08c00" d="M 0.14,-1.00 Q 0.14,-1.00 2.21,-1.10 4.27,-1.20 11.09,-0.82 17.91,-0.43 28.31,0.02 38.70,0.48 46.26,0.67 53.83,0.87 59.63,0.95 65.43,1.04 69.05,1.07 72.66,1.11 75.06,1.12 77.46,1.14 79.62,1.14 81.79,1.15 83.29,1.15 84.80,1.15 86.21,1.46 87.63,1.77 88.36,1.88 89.09,1.99 89.84,2.09 90.60,2.19 91.39,2.87 92.19,3.54 92.50,9.61 92.82,15.69 93.15,22.92 93.49,30.16 93.64,36.73 93.78,43.29 92.98,54.50 92.17,65.71 91.83,72.99 91.49,80.28 91.35,87.39 91.21,94.49 91.15,100.10 91.09,105.71 91.35,110.91 91.61,116.12 92.30,122.02 92.98,127.93 94.41,134.69 95.84,141.45 96.74,145.80 97.64,150.16 98.04,153.23 98.43,156.31 98.60,158.79 98.77,161.28 98.84,164.07 98.91,166.87 98.94,168.63 98.97,170.38 98.96,171.51 98.94,172.63 98.46,173.60 97.97,174.56 97.21,175.06 96.44,175.56 94.79,176.23 93.14,176.90 89.20,178.07 85.26,179.25 81.29,180.30 77.33,181.36 73.26,181.98 69.18,182.60 64.19,182.53 59.20,182.45 59.09,182.44 58.99,182.44 58.89,182.40 58.79,182.35 58.71,182.28 58.63,182.21 58.58,182.12 58.53,182.03 58.50,181.93 58.48,181.82 58.50,181.72 58.51,181.61 58.56,181.52 58.60,181.42 58.68,181.34 58.75,181.27 58.85,181.22 58.94,181.17 59.05,181.16 59.15,181.14 59.25,181.16 59.36,181.18 59.45,181.23 59.55,181.28 59.62,181.36 59.69,181.44 59.73,181.54 59.78,181.63 59.78,181.74 59.79,181.84 59.77,181.95 59.75,182.05 59.69,182.14 59.63,182.23 59.55,182.30 59.47,182.37 59.37,182.40 59.27,182.44 59.16,182.45 59.06,182.45 58.96,182.42 58.85,182.39 58.77,182.33 58.68,182.27 58.62,182.18 58.55,182.10 58.52,181.99 58.49,181.89 58.49,181.79 58.49,181.68 58.53,181.58 58.56,181.48 58.63,181.40 58.70,181.31 58.78,181.26 58.87,181.20 58.98,181.17 59.08,181.14 59.08,181.14 59.08,181.14 63.82,180.17 68.55,179.21 72.42,178.35 76.29,177.50 80.20,176.44 84.11,175.37 87.86,174.26 91.62,173.16 93.31,172.73 95.01,172.31 94.97,171.38 94.93,170.45 94.90,168.71 94.87,166.97 94.81,164.26 94.74,161.55 94.58,159.18 94.42,156.82 94.05,153.90 93.69,150.97 92.79,146.63 91.89,142.28 90.43,135.34 88.98,128.39 88.29,122.35 87.60,116.31 87.34,110.99 87.08,105.67 87.15,100.04 87.21,94.41 87.36,87.25 87.50,80.09 87.85,72.76 88.19,65.42 88.99,54.40 89.79,43.37 89.65,36.86 89.51,30.35 89.17,23.06 88.84,15.77 88.68,10.70 88.53,5.64 87.65,5.50 86.78,5.37 85.77,5.10 84.77,4.83 83.27,4.83 81.78,4.82 79.61,4.82 77.43,4.81 75.03,4.79 72.63,4.78 69.00,4.74 65.38,4.71 59.56,4.62 53.74,4.54 46.13,4.34 38.53,4.15 28.12,3.68 17.70,3.22 10.73,2.79 3.77,2.35 1.81,1.68 -0.14,1.00 -0.26,0.97 -0.37,0.93 -0.48,0.87 -0.59,0.82 -0.68,0.73 -0.77,0.65 -0.83,0.55 -0.90,0.45 -0.94,0.33 -0.98,0.22 -1.00,0.10 -1.01,-0.02 -0.99,-0.14 -0.97,-0.26 -0.93,-0.37 -0.88,-0.48 -0.81,-0.58 -0.74,-0.68 -0.65,-0.76 -0.55,-0.84 -0.44,-0.89 -0.33,-0.95 -0.21,-0.98 -0.10,-1.00 0.02,-1.00 0.14,-1.00 0.14,-1.00 L 0.14,-1.00 Z"/></g><g stroke-linecap="round" transform="translate(181.43440232043747 23.02534097032668) rotate(356.3504320861321 51 108.98036892824757)"><path d="M0 0 C36.76 0.42, 71.18 1.76, 102 0 M0 0 C29.91 -0.88, 57.58 -0.65, 102 0 M102 0 C101.94 57.52, 101.9 116.02, 102 217.96 M102 0 C102.4 56.29, 102.33 112.36, 102 217.96 M102 217.96 C68.03 216.44, 31.39 218.52, 0 217.96 M102 217.96 C80.54 217.97, 57.74 218.2, 0 217.96 M0 217.96 C0.49 141.26, 0.56 67.18, 0 0 M0 217.96 C0.96 168.27, 1.55 119.82, 0 0" stroke="#1e1e1e" stroke-width="4" fill="none"/></g><g stroke-linecap="round" transform="translate(237.26839769271334 286.5958783611593) rotate(360.39045355657953 113.16238345558422 48.522321444998674)"><path d="M0 0 C73.49 -0.98, 145.6 0.98, 226.32 0 M0 0 C50.42 1.25, 101.87 1.72, 226.32 0 M226.32 0 C225.22 18.94, 226.88 41.48, 226.32 97.04 M226.32 0 C225.45 21.87, 226.16 44.52, 226.32 97.04 M226.32 97.04 C169.58 98.8, 116.66 96.07, 0 97.04 M226.32 97.04 C179.79 97.42, 133.31 96.8, 0 97.04 M0 97.04 C1.78 74.93, -0.16 53.2, 0 0 M0 97.04 C-0.99 64.82, 0.15 31.08, 0 0" stroke="#1e1e1e" stroke-width="4" fill="none"/></g><g stroke-linecap="round" transform="translate(296.43440232043747 13.025340970326681) rotate(356.3504320861321 51 108.98036892824757)"><path d="M0 0 C24.13 -2.44, 46.15 -1.99, 102 0 M0 0 C34.06 -0.73, 68.15 -1.19, 102 0 M102 0 C101.42 77.98, 101.2 154.04, 102 217.96 M102 0 C102.8 72.13, 102.71 143.6, 102 217.96 M102 217.96 C75.12 215.56, 51.28 215.86, 0 217.96 M102 217.96 C65.89 218.07, 28.41 217.48, 0 217.96 M0 217.96 C0.3 137.5, -0.84 57.92, 0 0 M0 217.96 C-1.36 172.15, -2.08 126.33, 0 0" stroke="#1e1e1e" stroke-width="4" fill="none"/></g><g stroke-linecap="round" transform="translate(241.26839769271334 392.5958783611593) rotate(360.39045355657953 113.16238345558422 48.52232144499868)"><path d="M0 0 C77.33 -2.15, 154.69 -2.59, 226.32 0 M0 0 C70.52 0.83, 141.55 0.35, 226.32 0 M226.32 0 C226.79 25.77, 224.55 50.12, 226.32 97.04 M226.32 0 C226.8 21.37, 226.82 41.06, 226.32 97.04 M226.32 97.04 C164.07 97.09, 101.4 100.02, 0 97.04 M226.32 97.04 C141.92 95.2, 57.71 95.95, 0 97.04 M0 97.04 C0.75 64.23, 1.4 35.15, 0 0 M0 97.04 C-0.31 64.01, -0.1 30.67, 0 0" stroke="#1e1e1e" stroke-width="4" fill="none"/></g><g transform="translate(536.0431273371375 108.68628851097881) rotate(0 -20 20.5)" stroke="none"><path fill="#1e1e1e" d="M -0.64,0.32 Q -0.64,0.32 -1.55,-0.66 -2.46,-1.64 -3.03,-3.04 -3.61,-4.44 -4.38,-5.79 -5.14,-7.13 -7.76,-11.14 -10.38,-15.15 -12.61,-17.94 -14.83,-20.72 -16.68,-21.75 -18.54,-22.78 -21.98,-20.75 -25.42,-18.72 -30.25,-11.16 -35.07,-3.61 -38.28,5.81 -41.49,15.24 -40.27,26.47 -39.04,37.70 -36.30,44.10 -33.56,50.49 -30.48,54.25 -27.41,58.00 -23.69,60.05 -19.96,62.10 -16.21,62.96 -12.45,63.83 -10.25,64.23 -8.04,64.62 -7.04,64.50 -6.04,64.38 -4.93,63.86 -3.82,63.34 -1.13,60.45 1.55,57.56 3.14,56.18 4.72,54.80 5.38,53.96 6.03,53.11 6.19,53.01 6.34,52.90 6.51,52.84 6.68,52.78 6.86,52.75 7.05,52.73 7.23,52.75 7.41,52.78 7.58,52.84 7.76,52.91 7.91,53.01 8.06,53.12 8.18,53.26 8.30,53.40 8.39,53.56 8.47,53.72 8.51,53.90 8.56,54.08 8.56,54.26 8.56,54.45 8.51,54.63 8.47,54.80 8.38,54.97 8.30,55.13 8.17,55.27 8.05,55.40 5.92,55.44 3.78,55.47 3.68,55.48 3.57,55.49 3.47,55.46 3.36,55.44 3.27,55.38 3.18,55.33 3.12,55.24 3.05,55.16 3.01,55.06 2.97,54.96 2.97,54.86 2.97,54.75 3.00,54.65 3.03,54.55 3.09,54.46 3.15,54.37 3.23,54.31 3.32,54.25 3.42,54.22 3.52,54.18 3.63,54.19 3.74,54.19 3.84,54.22 3.94,54.26 4.02,54.33 4.10,54.39 4.16,54.48 4.22,54.57 4.24,54.67 4.27,54.78 4.26,54.88 4.26,54.99 4.21,55.09 4.17,55.18 4.10,55.26 4.03,55.34 3.94,55.40 3.85,55.45 3.74,55.47 3.64,55.49 3.54,55.48 3.43,55.46 3.33,55.42 3.24,55.37 3.16,55.30 3.09,55.22 3.04,55.13 2.99,55.03 2.98,54.93 2.96,54.82 2.98,54.72 3.00,54.61 3.05,54.52 3.10,54.43 3.18,54.36 3.26,54.28 3.36,54.24 3.45,54.20 3.45,54.20 3.45,54.20 4.74,53.66 6.03,53.11 6.19,53.01 6.34,52.90 6.51,52.84 6.68,52.78 6.86,52.75 7.05,52.73 7.23,52.75 7.41,52.78 7.58,52.84 7.76,52.91 7.91,53.01 8.06,53.12 8.18,53.26 8.30,53.40 8.39,53.56 8.47,53.72 8.51,53.90 8.56,54.08 8.56,54.26 8.56,54.45 8.51,54.63 8.47,54.80 8.38,54.97 8.30,55.13 8.17,55.27 8.05,55.40 7.42,56.27 6.79,57.13 5.34,58.42 3.89,59.71 0.79,63.10 -2.29,66.49 -3.97,67.22 -5.65,67.94 -7.15,68.05 -8.65,68.16 -10.97,67.74 -13.30,67.31 -17.50,66.26 -21.70,65.20 -25.87,62.72 -30.05,60.24 -33.38,56.05 -36.71,51.86 -39.57,44.98 -42.43,38.09 -43.55,26.18 -44.68,14.28 -41.25,4.44 -37.82,-5.38 -32.43,-13.38 -27.05,-21.38 -22.70,-23.49 -18.35,-25.59 -15.39,-24.18 -12.44,-22.76 -10.12,-19.80 -7.80,-16.83 -5.14,-12.72 -2.48,-8.61 -1.64,-7.08 -0.81,-5.55 -0.32,-4.25 0.16,-2.95 0.40,-1.63 0.64,-0.32 0.67,-0.24 0.70,-0.15 0.71,-0.07 0.72,0.01 0.70,0.10 0.69,0.18 0.66,0.26 0.63,0.34 0.58,0.41 0.53,0.48 0.46,0.54 0.39,0.60 0.32,0.64 0.24,0.67 0.15,0.69 0.07,0.71 -0.01,0.71 -0.10,0.71 -0.18,0.69 -0.26,0.66 -0.34,0.62 -0.42,0.58 -0.48,0.52 -0.54,0.46 -0.59,0.39 -0.64,0.32 -0.64,0.32 L -0.64,0.32 Z"/></g><g transform="translate(550.0431273371375 145.6862885109788) rotate(0 11.5 11.5)" stroke="none"><path fill="#1e1e1e" d="M 0.92,0.30 Q 0.92,0.30 0.33,2.98 -0.25,5.66 -1.17,8.41 -2.09,11.16 -0.81,15.32 0.47,19.48 3.25,21.35 6.03,23.22 10.63,22.63 15.23,22.04 18.41,19.73 21.60,17.41 22.59,14.82 23.57,12.24 22.10,8.83 20.64,5.42 17.99,2.94 15.34,0.46 11.07,-0.01 6.80,-0.50 3.78,0.46 0.76,1.43 -0.60,3.82 -1.97,6.21 -1.73,8.92 -1.50,11.63 -1.50,11.73 -1.50,11.84 -1.54,11.94 -1.58,12.04 -1.65,12.12 -1.72,12.20 -1.81,12.26 -1.90,12.31 -2.00,12.34 -2.11,12.36 -2.21,12.35 -2.32,12.34 -2.41,12.30 -2.51,12.25 -2.59,12.18 -2.67,12.11 -2.72,12.01 -2.77,11.92 -2.79,11.82 -2.80,11.71 -2.79,11.61 -2.77,11.50 -2.72,11.41 -2.67,11.31 -2.60,11.24 -2.52,11.17 -2.42,11.12 -2.33,11.07 -2.22,11.06 -2.12,11.05 -2.01,11.07 -1.91,11.09 -1.82,11.15 -1.73,11.20 -1.66,11.28 -1.59,11.36 -1.55,11.46 -1.51,11.56 -1.50,11.66 -1.49,11.77 -1.52,11.87 -1.55,11.98 -1.61,12.06 -1.67,12.15 -1.75,12.22 -1.83,12.28 -1.93,12.32 -2.04,12.35 -2.14,12.35 -2.25,12.35 -2.35,12.32 -2.45,12.29 -2.53,12.23 -2.62,12.16 -2.68,12.07 -2.74,11.99 -2.77,11.88 -2.80,11.78 -2.80,11.78 -2.80,11.78 -3.25,8.65 -3.71,5.51 -2.16,2.30 -0.61,-0.91 3.22,-2.29 7.07,-3.67 12.20,-2.92 17.32,-2.17 20.53,0.95 23.75,4.08 25.25,8.47 26.75,12.85 25.25,16.41 23.76,19.97 19.76,22.66 15.75,25.35 10.20,25.71 4.64,26.07 1.12,23.42 -2.39,20.76 -3.75,15.62 -5.11,10.48 -4.15,7.58 -3.19,4.68 -2.06,2.18 -0.92,-0.30 -0.87,-0.41 -0.82,-0.52 -0.75,-0.61 -0.67,-0.70 -0.58,-0.77 -0.48,-0.84 -0.38,-0.89 -0.27,-0.93 -0.15,-0.95 -0.03,-0.97 0.07,-0.96 0.19,-0.95 0.30,-0.92 0.41,-0.88 0.51,-0.82 0.61,-0.75 0.70,-0.67 0.78,-0.58 0.84,-0.48 0.89,-0.38 0.93,-0.27 0.96,-0.15 0.97,-0.03 0.97,0.07 0.95,0.19 0.92,0.30 0.92,0.30 L 0.92,0.30 Z"/></g><g transform="translate(587.0431273371375 108.68628851097881) rotate(0 4.5 28.5)" stroke="none"><path fill="#1e1e1e" d="M 0.75,-0.15 Q 0.75,-0.15 1.70,2.64 2.66,5.44 3.51,9.23 4.37,13.02 5.32,16.92 6.27,20.82 6.99,26.01 7.71,31.20 8.01,35.44 8.32,39.69 8.72,43.44 9.13,47.20 9.64,49.92 10.14,52.64 9.47,54.52 8.80,56.40 8.76,56.50 8.72,56.60 8.65,56.68 8.58,56.76 8.49,56.81 8.40,56.87 8.30,56.89 8.19,56.91 8.09,56.90 7.98,56.89 7.88,56.85 7.79,56.80 7.71,56.73 7.63,56.66 7.58,56.56 7.53,56.47 7.52,56.36 7.50,56.26 7.52,56.15 7.53,56.05 7.58,55.95 7.63,55.86 7.71,55.79 7.79,55.71 7.88,55.67 7.98,55.63 8.09,55.61 8.19,55.60 8.29,55.62 8.40,55.65 8.49,55.70 8.58,55.76 8.65,55.84 8.72,55.92 8.76,56.02 8.80,56.12 8.80,56.22 8.81,56.33 8.78,56.43 8.75,56.53 8.69,56.62 8.63,56.71 8.55,56.77 8.46,56.84 8.36,56.87 8.26,56.91 8.16,56.91 8.05,56.91 7.95,56.87 7.85,56.84 7.76,56.77 7.68,56.71 7.62,56.62 7.56,56.53 7.53,56.43 7.50,56.33 7.51,56.22 7.51,56.12 7.51,56.12 7.51,56.12 7.57,54.65 7.63,53.18 6.64,50.38 5.64,47.58 5.23,43.75 4.82,39.93 4.54,35.79 4.27,31.66 3.63,26.62 2.99,21.59 2.10,17.65 1.20,13.70 0.42,9.88 -0.36,6.05 -0.55,3.10 -0.75,0.15 -0.75,0.05 -0.76,-0.03 -0.74,-0.12 -0.73,-0.21 -0.69,-0.30 -0.66,-0.38 -0.60,-0.45 -0.54,-0.53 -0.47,-0.59 -0.40,-0.64 -0.32,-0.68 -0.23,-0.72 -0.14,-0.74 -0.05,-0.76 0.03,-0.75 0.12,-0.75 0.21,-0.72 0.30,-0.70 0.38,-0.65 0.46,-0.60 0.52,-0.54 0.59,-0.48 0.64,-0.40 0.69,-0.32 0.72,-0.23 0.75,-0.14 0.75,-0.14 L 0.75,-0.15 Z"/></g><g transform="translate(614.0431273371375 130.6862885109788) rotate(0 8 13.5)" stroke="none"><path fill="#1e1e1e" d="M 0.73,0.36 Q 0.73,0.36 0.21,2.24 -0.30,4.13 -0.56,6.64 -0.82,9.15 -0.67,11.60 -0.52,14.05 0.35,16.66 1.24,19.28 1.97,20.94 2.71,22.60 5.40,22.15 8.09,21.71 10.47,19.78 12.85,17.86 14.25,15.55 15.65,13.25 16.40,11.09 17.14,8.93 17.18,8.83 17.22,8.73 17.28,8.65 17.35,8.57 17.44,8.51 17.53,8.45 17.63,8.43 17.74,8.40 17.84,8.41 17.95,8.42 18.04,8.46 18.14,8.51 18.22,8.58 18.30,8.65 18.35,8.74 18.40,8.84 18.42,8.94 18.44,9.04 18.43,9.15 18.41,9.25 18.36,9.35 18.32,9.44 18.24,9.52 18.17,9.59 18.07,9.64 17.97,9.69 17.87,9.70 17.76,9.71 17.66,9.69 17.56,9.67 17.46,9.62 17.37,9.57 17.30,9.49 17.23,9.41 17.19,9.31 17.15,9.21 17.14,9.11 17.13,9.00 17.16,8.90 17.18,8.80 17.24,8.71 17.30,8.62 17.38,8.55 17.47,8.48 17.57,8.45 17.67,8.41 17.77,8.41 17.88,8.41 17.98,8.44 18.08,8.47 18.17,8.53 18.25,8.60 18.31,8.68 18.38,8.77 18.41,8.87 18.44,8.97 18.43,9.08 18.43,9.19 18.43,9.19 18.43,9.19 18.22,11.85 18.01,14.52 16.49,17.47 14.97,20.43 11.82,22.76 8.68,25.09 5.13,25.18 1.58,25.28 -0.18,22.81 -1.96,20.34 -2.91,17.29 -3.86,14.24 -3.97,11.48 -4.08,8.72 -3.61,5.74 -3.14,2.76 -1.93,1.20 -0.73,-0.36 -0.67,-0.44 -0.62,-0.52 -0.54,-0.59 -0.47,-0.66 -0.39,-0.71 -0.30,-0.75 -0.20,-0.78 -0.11,-0.80 -0.01,-0.81 0.08,-0.81 0.17,-0.79 0.27,-0.76 0.36,-0.72 0.45,-0.68 0.52,-0.61 0.60,-0.55 0.65,-0.47 0.71,-0.39 0.75,-0.30 0.78,-0.21 0.80,-0.11 0.81,-0.01 0.80,0.08 0.79,0.17 0.76,0.27 0.73,0.36 0.73,0.36 L 0.73,0.36 Z"/></g><g transform="translate(645.0431273371375 130.6862885109788) rotate(0 28 16.5)" stroke="none"><path fill="#1e1e1e" d="M 0.88,-0.14 Q 0.88,-0.14 1.80,3.24 2.72,6.63 3.57,11.25 4.42,15.86 5.33,19.18 6.24,22.50 7.24,23.95 8.24,25.40 8.27,25.61 8.30,25.82 8.28,26.02 8.26,26.23 8.19,26.43 8.12,26.63 8.01,26.80 7.89,26.98 7.74,27.12 7.59,27.26 7.40,27.37 7.22,27.47 7.02,27.52 6.81,27.58 6.60,27.58 6.40,27.59 6.19,27.54 5.99,27.50 5.80,27.40 5.61,27.31 5.45,27.17 5.29,27.04 5.17,26.87 5.04,26.70 4.96,26.51 4.89,26.31 6.04,24.42 7.20,22.53 8.33,18.89 9.46,15.26 10.28,12.46 11.11,9.67 11.79,7.85 12.46,6.03 12.74,5.58 13.03,5.12 13.12,4.94 13.21,4.76 13.34,4.61 13.47,4.45 13.63,4.34 13.80,4.22 13.98,4.15 14.17,4.07 14.37,4.04 14.57,4.02 14.77,4.04 14.97,4.06 15.15,4.13 15.34,4.20 15.51,4.31 15.68,4.42 15.81,4.57 15.95,4.72 16.04,4.89 16.14,5.07 16.19,5.26 16.24,5.46 16.25,5.66 16.25,5.86 16.20,6.05 16.16,6.25 16.65,6.04 17.14,5.83 18.74,8.59 20.34,11.35 22.14,15.70 23.95,20.05 24.99,21.86 26.03,23.67 26.09,23.87 26.14,24.06 26.15,24.27 26.16,24.47 26.11,24.67 26.07,24.87 25.98,25.06 25.89,25.24 25.76,25.40 25.63,25.56 25.46,25.68 25.30,25.80 25.11,25.88 24.92,25.96 24.72,25.99 24.51,26.02 24.31,26.00 24.10,25.98 23.91,25.92 23.72,25.85 23.54,25.74 23.37,25.63 23.23,25.48 23.09,25.33 22.99,25.15 22.89,24.97 25.28,22.17 27.68,19.36 29.64,16.98 31.61,14.59 33.44,12.62 35.26,10.64 37.10,10.48 38.94,10.32 40.64,12.88 42.33,15.44 44.10,18.19 45.86,20.94 47.98,23.81 50.10,26.68 50.42,28.09 50.74,29.49 52.77,28.70 54.80,27.92 54.90,27.88 55.00,27.85 55.11,27.84 55.21,27.84 55.31,27.87 55.42,27.90 55.50,27.96 55.59,28.02 55.65,28.11 55.71,28.20 55.75,28.30 55.78,28.40 55.78,28.51 55.77,28.61 55.74,28.71 55.70,28.81 55.63,28.89 55.57,28.98 55.48,29.04 55.39,29.09 55.29,29.12 55.18,29.15 55.08,29.14 54.97,29.13 54.87,29.09 54.78,29.05 54.70,28.98 54.62,28.91 54.57,28.81 54.51,28.72 54.49,28.62 54.47,28.51 54.49,28.41 54.50,28.30 54.55,28.21 54.59,28.11 54.67,28.04 54.74,27.96 54.84,27.91 54.93,27.86 55.04,27.85 55.14,27.83 55.25,27.85 55.35,27.87 55.44,27.93 55.54,27.98 55.61,28.06 55.68,28.14 55.72,28.23 55.76,28.33 55.77,28.44 55.78,28.54 55.76,28.64 55.73,28.75 55.68,28.84 55.62,28.93 55.54,28.99 55.45,29.06 55.45,29.06 55.45,29.06 53.55,30.53 51.65,32.00 49.53,30.36 47.41,28.71 45.15,25.77 42.89,22.83 41.11,20.02 39.33,17.21 38.45,15.12 37.58,13.03 35.92,14.91 34.26,16.79 32.08,19.39 29.91,22.00 27.97,22.84 26.03,23.67 26.09,23.87 26.14,24.06 26.15,24.27 26.16,24.47 26.11,24.67 26.07,24.87 25.98,25.06 25.89,25.24 25.76,25.40 25.63,25.56 25.46,25.68 25.30,25.80 25.11,25.88 24.92,25.96 24.72,25.99 24.51,26.02 24.31,26.00 24.10,25.98 23.91,25.92 23.72,25.85 23.54,25.74 23.37,25.63 23.23,25.48 23.09,25.33 22.99,25.15 22.89,24.97 21.86,23.16 20.82,21.35 19.10,17.17 17.39,13.00 16.10,10.60 14.80,8.20 13.92,6.66 13.03,5.12 13.12,4.94 13.21,4.76 13.34,4.61 13.47,4.45 13.63,4.34 13.80,4.22 13.98,4.15 14.17,4.07 14.37,4.04 14.57,4.02 14.77,4.04 14.97,4.06 15.15,4.13 15.34,4.20 15.51,4.31 15.68,4.42 15.81,4.57 15.95,4.72 16.04,4.89 16.14,5.07 16.19,5.26 16.24,5.46 16.25,5.66 16.25,5.86 16.20,6.05 16.16,6.25 15.90,6.72 15.64,7.19 15.03,8.92 14.42,10.65 13.58,13.49 12.74,16.33 11.31,20.54 9.87,24.75 9.06,25.07 8.24,25.40 8.27,25.61 8.30,25.82 8.28,26.02 8.26,26.23 8.19,26.43 8.12,26.63 8.01,26.80 7.89,26.98 7.74,27.12 7.59,27.26 7.40,27.37 7.22,27.47 7.02,27.52 6.81,27.58 6.60,27.58 6.40,27.59 6.19,27.54 5.99,27.50 5.80,27.40 5.61,27.31 5.45,27.17 5.29,27.04 5.17,26.87 5.04,26.70 4.96,26.51 4.89,26.31 3.95,24.87 3.02,23.43 2.08,19.94 1.14,16.44 0.36,11.80 -0.42,7.16 -0.65,3.65 -0.88,0.14 -0.88,0.03 -0.88,-0.06 -0.86,-0.17 -0.84,-0.27 -0.80,-0.37 -0.75,-0.47 -0.68,-0.55 -0.62,-0.64 -0.53,-0.70 -0.44,-0.77 -0.35,-0.81 -0.25,-0.85 -0.14,-0.87 -0.03,-0.89 0.06,-0.88 0.17,-0.87 0.27,-0.84 0.37,-0.80 0.47,-0.75 0.56,-0.69 0.63,-0.61 0.71,-0.53 0.76,-0.44 0.81,-0.35 0.84,-0.24 0.88,-0.14 0.88,-0.14 L 0.88,-0.14 Z"/></g><g transform="translate(712.0431273371375 134.6862885109788) rotate(0 20 11.5)" stroke="none"><path fill="#1e1e1e" d="M 0.93,0 Q 0.93,0 1.22,1.14 1.52,2.29 2.12,4.61 2.72,6.94 3.86,10.81 5.00,14.68 4.78,15.28 4.57,15.88 5.22,15.47 5.87,15.05 7.39,12.83 8.90,10.61 10.21,8.47 11.52,6.34 12.42,5.06 13.32,3.79 15.19,3.18 17.07,2.57 18.60,4.08 20.14,5.59 22.29,8.94 24.44,12.29 26.40,14.73 28.35,17.16 29.76,18.53 31.16,19.89 34.63,18.50 38.11,17.12 38.21,17.09 38.31,17.06 38.42,17.07 38.53,17.08 38.62,17.12 38.72,17.16 38.80,17.23 38.88,17.30 38.94,17.39 38.99,17.48 39.01,17.59 39.03,17.69 39.02,17.80 39.01,17.90 38.96,18.00 38.91,18.09 38.84,18.17 38.76,18.24 38.67,18.29 38.58,18.34 38.47,18.36 38.37,18.37 38.26,18.35 38.16,18.33 38.06,18.28 37.97,18.23 37.90,18.15 37.83,18.08 37.78,17.98 37.74,17.88 37.73,17.78 37.72,17.67 37.74,17.57 37.77,17.46 37.82,17.37 37.88,17.28 37.96,17.22 38.04,17.15 38.14,17.11 38.24,17.07 38.35,17.07 38.46,17.06 38.56,17.09 38.66,17.12 38.75,17.18 38.83,17.25 38.90,17.33 38.96,17.42 38.99,17.52 39.02,17.62 39.02,17.73 39.02,17.83 38.99,17.93 38.95,18.03 38.89,18.12 38.82,18.20 38.73,18.26 38.64,18.32 38.64,18.32 38.64,18.32 34.77,20.20 30.89,22.08 28.28,20.73 25.67,19.37 23.59,16.76 21.50,14.16 19.57,11.05 17.63,7.95 16.31,6.45 14.99,4.95 15.56,5.38 16.13,5.82 15.31,6.99 14.49,8.16 13.10,10.42 11.71,12.68 9.59,15.39 7.47,18.11 6.32,18.48 5.18,18.86 3.45,17.26 1.72,15.66 0.65,11.66 -0.42,7.66 -0.97,4.98 -1.52,2.30 -1.22,1.15 -0.93,0 -0.91,-0.11 -0.90,-0.22 -0.86,-0.32 -0.82,-0.43 -0.76,-0.52 -0.69,-0.61 -0.61,-0.69 -0.52,-0.76 -0.42,-0.81 -0.33,-0.87 -0.22,-0.89 -0.11,-0.92 0.00,-0.92 0.11,-0.92 0.22,-0.89 0.33,-0.87 0.42,-0.81 0.52,-0.76 0.61,-0.69 0.69,-0.61 0.76,-0.52 0.82,-0.43 0.86,-0.32 0.90,-0.22 0.91,-0.11 0.93,0.00 0.93,0.00 L 0.93,0 Z"/></g><g transform="translate(793.0431273371375 110.68628851097881) rotate(0 -7.5 21.5)" stroke="none"><path fill="#1e1e1e" d="M 0,1.14 Q 0,1.14 -1.42,1.40 -2.84,1.65 -7.79,3.37 -12.74,5.10 -14.53,5.78 -16.33,6.47 -16.05,7.42 -15.76,8.37 -12.45,10.87 -9.13,13.38 -3.72,19.02 1.68,24.67 2.21,30.29 2.73,35.90 -3.71,38.37 -10.16,40.84 -13.88,41.47 -17.59,42.10 -19.09,42.54 -20.59,42.98 -20.70,42.99 -20.80,43.00 -20.91,42.98 -21.01,42.96 -21.10,42.91 -21.20,42.85 -21.27,42.77 -21.34,42.69 -21.38,42.59 -21.42,42.50 -21.42,42.39 -21.43,42.28 -21.40,42.18 -21.38,42.08 -21.32,41.99 -21.26,41.90 -21.18,41.84 -21.09,41.77 -20.99,41.73 -20.89,41.70 -20.79,41.70 -20.68,41.70 -20.58,41.73 -20.48,41.76 -20.39,41.82 -20.31,41.89 -20.25,41.97 -20.19,42.06 -20.16,42.16 -20.13,42.27 -20.13,42.37 -20.13,42.48 -20.17,42.58 -20.21,42.68 -20.28,42.76 -20.35,42.84 -20.44,42.90 -20.53,42.95 -20.63,42.98 -20.73,43.00 -20.84,42.99 -20.94,42.98 -21.04,42.94 -21.14,42.89 -21.22,42.82 -21.29,42.75 -21.35,42.66 -21.40,42.56 -21.42,42.46 -21.43,42.35 -21.42,42.25 -21.40,42.14 -21.35,42.05 -21.31,41.96 -21.23,41.88 -21.15,41.81 -21.06,41.76 -20.96,41.72 -20.96,41.72 -20.96,41.72 -19.46,41.28 -17.96,40.84 -14.62,39.40 -11.27,37.96 -5.17,35.57 0.92,33.17 -0.12,30.05 -1.17,26.92 -6.25,21.48 -11.32,16.03 -15.08,12.73 -18.85,9.43 -18.98,7.54 -19.11,5.66 -16.48,3.72 -13.85,1.79 -8.37,0.07 -2.90,-1.65 -1.45,-1.40 0,-1.14 0.13,-1.13 0.27,-1.11 0.40,-1.06 0.53,-1.01 0.64,-0.93 0.76,-0.85 0.85,-0.75 0.94,-0.65 1.00,-0.52 1.07,-0.40 1.10,-0.27 1.14,-0.13 1.14,0.00 1.14,0.13 1.10,0.27 1.07,0.40 1.00,0.52 0.94,0.65 0.85,0.75 0.76,0.85 0.64,0.93 0.53,1.01 0.40,1.06 0.27,1.11 0.13,1.13 -0.00,1.14 -0.00,1.14 L 0,1.14 Z"/></g><g transform="translate(560.0431273371375 346.6862885109788) rotate(0 35.5 33.5)" stroke="none"><path fill="#1e1e1e" d="M 1.04,0 Q 1.04,0 1.32,2.87 1.60,5.75 1.65,11.85 1.70,17.96 2.30,24.22 2.90,30.47 5.74,41.64 8.59,52.82 9.80,58.22 11.01,63.61 11.81,65.05 12.61,66.49 12.63,66.71 12.65,66.93 12.62,67.15 12.59,67.37 12.50,67.57 12.42,67.78 12.29,67.95 12.16,68.13 11.99,68.28 11.82,68.42 11.63,68.52 11.43,68.62 11.21,68.67 11.00,68.71 10.77,68.71 10.55,68.70 10.34,68.65 10.13,68.59 9.93,68.48 9.74,68.37 9.58,68.22 9.41,68.07 9.29,67.89 9.17,67.70 9.10,67.50 9.02,67.29 9.41,64.69 9.79,62.10 9.71,54.09 9.63,46.08 8.72,40.71 7.81,35.35 6.84,31.05 5.88,26.76 4.60,22.68 3.32,18.60 2.46,14.77 1.60,10.93 0.97,8.81 0.34,6.68 0.05,5.42 -0.22,4.15 -0.36,2.94 -0.49,1.73 -0.23,0.65 0.02,-0.42 0.59,-1.30 1.17,-2.18 3.98,-3.29 6.80,-4.40 10.56,-5.07 14.33,-5.74 20.35,-5.74 26.38,-5.73 32.22,-3.47 38.07,-1.20 39.36,3.17 40.66,7.56 33.28,13.98 25.90,20.40 20.16,24.46 14.42,28.52 10.83,30.82 7.23,33.13 5.53,33.90 3.83,34.67 7.27,35.53 10.72,36.38 17.51,38.05 24.30,39.72 33.48,41.28 42.65,42.84 49.47,44.08 56.28,45.32 60.68,46.40 65.08,47.47 67.06,48.27 69.03,49.06 68.73,50.68 68.43,52.30 68.50,52.33 68.57,52.37 68.63,52.43 68.69,52.48 68.73,52.55 68.77,52.61 68.80,52.69 68.83,52.76 68.83,52.84 68.84,52.92 68.83,53.00 68.82,53.08 68.79,53.15 68.76,53.22 68.71,53.29 68.66,53.35 68.60,53.40 68.54,53.45 68.47,53.49 68.40,53.52 68.32,53.54 68.25,53.56 68.17,53.55 68.09,53.55 68.01,53.53 67.93,53.51 68.10,53.53 68.27,53.55 68.16,53.55 68.06,53.55 67.96,53.51 67.86,53.47 67.77,53.40 67.69,53.34 67.64,53.25 67.58,53.16 67.55,53.05 67.53,52.95 67.54,52.85 67.55,52.74 67.59,52.64 67.63,52.55 67.71,52.47 67.78,52.39 67.87,52.34 67.96,52.28 68.07,52.27 68.17,52.25 68.28,52.26 68.38,52.28 68.48,52.32 68.57,52.37 68.65,52.45 68.72,52.52 68.77,52.62 68.81,52.71 68.83,52.82 68.84,52.93 68.82,53.03 68.80,53.13 68.75,53.23 68.69,53.32 68.61,53.39 68.53,53.46 68.44,53.50 68.34,53.54 68.23,53.55 68.13,53.56 68.02,53.53 67.92,53.50 67.83,53.45 67.74,53.39 67.68,53.31 67.61,53.22 67.57,53.12 67.54,53.02 67.54,52.92 67.53,52.81 67.57,52.71 67.60,52.61 67.66,52.52 67.72,52.43 67.81,52.37 67.90,52.31 68.17,52.30 68.43,52.30 68.50,52.33 68.57,52.37 68.63,52.43 68.69,52.48 68.73,52.55 68.77,52.61 68.80,52.69 68.83,52.76 68.83,52.84 68.84,52.92 68.83,53.00 68.82,53.08 68.79,53.15 68.76,53.22 68.71,53.29 68.66,53.35 68.60,53.40 68.54,53.45 68.47,53.49 68.40,53.52 68.32,53.54 68.25,53.56 68.17,53.55 68.09,53.55 68.01,53.53 67.93,53.51 67.73,53.10 67.52,52.69 65.82,51.97 64.11,51.25 59.86,50.12 55.61,48.98 48.82,47.73 42.03,46.47 32.73,44.86 23.43,43.26 16.52,41.54 9.61,39.82 5.60,38.39 1.59,36.97 1.54,34.71 1.49,32.45 3.40,31.29 5.30,30.12 8.83,27.86 12.37,25.60 17.99,21.63 23.62,17.66 30.81,11.95 37.99,6.25 37.03,3.74 36.06,1.24 31.18,-0.53 26.29,-2.31 20.60,-2.33 14.92,-2.35 11.41,-1.74 7.90,-1.13 5.79,-0.57 3.67,-0.01 3.25,0.73 2.83,1.49 2.93,2.46 3.03,3.42 3.28,4.59 3.54,5.75 4.19,7.98 4.84,10.22 5.64,13.93 6.44,17.64 7.70,21.85 8.97,26.07 9.94,30.45 10.91,34.83 11.85,40.42 12.78,46.02 12.99,54.31 13.20,62.60 12.90,64.54 12.61,66.49 12.63,66.71 12.65,66.93 12.62,67.15 12.59,67.36 12.50,67.57 12.42,67.78 12.29,67.95 12.16,68.13 11.99,68.28 11.82,68.42 11.63,68.52 11.43,68.62 11.21,68.67 11.00,68.71 10.77,68.71 10.55,68.70 10.34,68.65 10.13,68.59 9.93,68.48 9.74,68.37 9.58,68.22 9.41,68.07 9.29,67.89 9.17,67.70 9.10,67.50 9.02,67.29 8.22,65.87 7.42,64.46 6.22,59.09 5.03,53.71 2.21,42.25 -0.60,30.79 -1.15,24.38 -1.70,17.96 -1.65,11.85 -1.60,5.75 -1.32,2.87 -1.04,0 -1.03,-0.12 -1.01,-0.25 -0.97,-0.36 -0.92,-0.48 -0.85,-0.59 -0.78,-0.69 -0.69,-0.78 -0.59,-0.86 -0.48,-0.92 -0.37,-0.98 -0.24,-1.01 -0.12,-1.04 0.00,-1.04 0.12,-1.04 0.24,-1.01 0.37,-0.98 0.48,-0.92 0.59,-0.86 0.69,-0.77 0.78,-0.69 0.85,-0.59 0.92,-0.48 0.97,-0.36 1.01,-0.25 1.03,-0.12 1.04,0.00 1.04,0.00 L 1.04,0 Z"/></g><g transform="translate(646.0431273371375 369.6862885109788) rotate(0 12 13.5)" stroke="none"><path fill="#1e1e1e" d="M 0.83,0.50 Q 0.83,0.50 -0.60,3.53 -2.05,6.57 -2.97,9.50 -3.90,12.44 -2.38,15.58 -0.87,18.73 2.36,20.52 5.61,22.32 9.39,22.82 13.17,23.33 17.46,22.47 21.74,21.60 23.74,20.37 25.74,19.14 24.19,15.75 22.63,12.36 19.97,10.52 17.30,8.69 13.46,7.60 9.62,6.51 7.31,6.43 5.01,6.35 4.85,6.28 4.68,6.20 4.54,6.10 4.39,5.99 4.28,5.85 4.16,5.70 4.09,5.54 4.01,5.38 3.97,5.20 3.94,5.02 3.95,4.84 3.95,4.66 4.01,4.49 4.06,4.31 4.15,4.16 4.24,4.00 4.37,3.87 4.49,3.74 4.64,3.64 4.80,3.55 4.97,3.49 5.14,3.43 5.32,3.42 5.50,3.41 5.68,3.44 5.86,3.47 7.40,6.94 8.94,10.42 8.97,10.52 9.00,10.62 9.00,10.73 9.00,10.84 8.96,10.94 8.93,11.04 8.86,11.12 8.79,11.20 8.70,11.26 8.61,11.32 8.51,11.34 8.41,11.37 8.30,11.36 8.20,11.35 8.10,11.31 8.00,11.27 7.92,11.20 7.84,11.13 7.79,11.04 7.74,10.94 7.72,10.84 7.70,10.74 7.71,10.63 7.72,10.52 7.77,10.43 7.82,10.33 7.89,10.26 7.97,10.18 8.06,10.14 8.16,10.09 8.26,10.07 8.37,10.06 8.47,10.08 8.58,10.10 8.67,10.15 8.76,10.20 8.83,10.28 8.90,10.36 8.95,10.46 8.99,10.55 9.00,10.66 9.01,10.76 8.98,10.87 8.96,10.97 8.90,11.06 8.84,11.15 8.76,11.22 8.68,11.28 8.58,11.32 8.48,11.36 8.37,11.36 8.27,11.37 8.16,11.34 8.06,11.30 7.98,11.24 7.89,11.18 7.83,11.10 7.77,11.01 7.77,11.01 7.77,11.01 6.39,8.68 5.01,6.35 4.85,6.28 4.68,6.20 4.54,6.10 4.39,5.99 4.28,5.85 4.16,5.70 4.09,5.54 4.01,5.38 3.97,5.20 3.94,5.02 3.95,4.84 3.95,4.66 4.01,4.49 4.06,4.31 4.15,4.16 4.24,4.00 4.37,3.87 4.49,3.74 4.64,3.64 4.80,3.55 4.97,3.49 5.14,3.43 5.32,3.42 5.50,3.41 5.68,3.44 5.86,3.47 8.22,3.27 10.57,3.07 14.98,4.40 19.39,5.74 22.60,8.26 25.82,10.78 27.28,14.92 28.75,19.06 25.68,22.03 22.61,25.01 17.66,25.91 12.71,26.82 8.30,26.09 3.90,25.36 0.05,22.88 -3.79,20.40 -5.43,16.19 -7.08,11.99 -5.96,8.46 -4.84,4.92 -2.84,2.21 -0.83,-0.50 -0.76,-0.59 -0.69,-0.68 -0.60,-0.76 -0.50,-0.83 -0.40,-0.88 -0.29,-0.93 -0.17,-0.95 -0.06,-0.97 0.05,-0.96 0.17,-0.96 0.28,-0.92 0.39,-0.89 0.49,-0.83 0.59,-0.77 0.68,-0.68 0.76,-0.60 0.82,-0.50 0.88,-0.40 0.92,-0.29 0.95,-0.17 0.96,-0.06 0.97,0.05 0.95,0.17 0.93,0.28 0.88,0.39 0.83,0.50 0.83,0.50 L 0.83,0.50 Z"/></g><g transform="translate(695.0431273371375 372.6862885109788) rotate(0 30 10)" stroke="none"><path fill="#1e1e1e" d="M 0.99,-0.33 Q 0.99,-0.33 1.91,1.27 2.84,2.88 3.40,4.80 3.95,6.72 5.01,9.12 6.07,11.53 7.04,13.05 8.01,14.57 9.05,15.62 10.09,16.67 12.72,16.73 15.34,16.80 17.95,15.28 20.55,13.77 23.04,11.10 25.53,8.43 28.00,8.90 30.46,9.37 32.75,10.89 35.04,12.41 37.91,14.43 40.78,16.46 43.72,17.18 46.67,17.91 50.29,17.67 53.92,17.43 55.23,16.83 56.54,16.23 56.05,13.83 55.55,11.43 54.17,8.05 52.80,4.67 52.19,3.09 51.58,1.50 51.55,1.40 51.51,1.30 51.51,1.19 51.51,1.09 51.55,0.99 51.58,0.89 51.65,0.80 51.71,0.72 51.80,0.66 51.89,0.60 51.99,0.57 52.09,0.54 52.20,0.55 52.30,0.55 52.40,0.59 52.50,0.63 52.58,0.70 52.66,0.77 52.72,0.86 52.77,0.95 52.79,1.06 52.82,1.16 52.81,1.26 52.79,1.37 52.75,1.47 52.71,1.56 52.63,1.64 52.56,1.72 52.47,1.77 52.37,1.82 52.27,1.83 52.16,1.85 52.06,1.83 51.95,1.82 51.86,1.77 51.76,1.72 51.69,1.64 51.62,1.56 51.57,1.47 51.53,1.37 51.52,1.26 51.51,1.16 51.53,1.06 51.55,0.95 51.61,0.86 51.66,0.77 51.74,0.70 51.82,0.63 51.92,0.59 52.02,0.55 52.13,0.55 52.23,0.54 52.34,0.57 52.44,0.60 52.53,0.66 52.61,0.72 52.68,0.80 52.74,0.89 52.74,0.89 52.74,0.89 53.71,2.28 54.68,3.67 57.02,7.29 59.36,10.91 59.49,14.17 59.62,17.42 56.99,19.30 54.35,21.18 50.06,21.35 45.76,21.53 42.24,20.53 38.71,19.53 35.83,17.49 32.95,15.46 31.18,14.18 29.41,12.91 27.74,12.23 26.07,11.54 24.23,14.27 22.39,17.00 18.88,18.72 15.36,20.44 11.70,19.99 8.04,19.55 6.48,18.05 4.91,16.55 3.81,14.77 2.70,12.99 1.58,10.35 0.46,7.71 -0.03,5.86 -0.54,4.01 -0.76,2.17 -0.99,0.33 -1.01,0.20 -1.04,0.08 -1.03,-0.04 -1.03,-0.16 -0.99,-0.28 -0.96,-0.40 -0.89,-0.51 -0.83,-0.62 -0.74,-0.71 -0.65,-0.80 -0.55,-0.87 -0.44,-0.94 -0.32,-0.98 -0.20,-1.02 -0.08,-1.03 0.04,-1.04 0.16,-1.02 0.29,-1.00 0.40,-0.95 0.52,-0.90 0.62,-0.82 0.72,-0.75 0.80,-0.65 0.88,-0.55 0.93,-0.44 0.99,-0.32 0.99,-0.33 L 0.99,-0.33 Z"/></g><g transform="translate(808.0431273371375 357.6862885109788) rotate(0 -15.5 20)" stroke="none"><path fill="#1e1e1e" d="M -0.12,1.10 Q -0.12,1.10 -2.74,1.13 -5.36,1.15 -8.91,1.35 -12.46,1.56 -15.92,2.20 -19.38,2.84 -21.76,3.67 -24.15,4.51 -24.37,4.52 -24.58,4.53 -24.80,4.50 -25.01,4.46 -25.21,4.37 -25.41,4.28 -25.58,4.14 -25.75,4.01 -25.88,3.84 -26.01,3.67 -26.10,3.47 -26.19,3.27 -26.23,3.06 -26.27,2.84 -26.25,2.63 -26.24,2.41 -26.17,2.20 -26.11,2.00 -26.00,1.81 -25.88,1.63 -25.73,1.47 -25.58,1.32 -25.39,1.21 -25.20,1.10 -25.00,1.03 -24.79,0.97 -22.91,2.84 -21.03,4.72 -15.95,7.72 -10.87,10.73 -5.95,17.57 -1.04,24.41 -1.12,28.55 -1.20,32.69 -3.81,34.89 -6.42,37.10 -10.91,38.21 -15.41,39.32 -19.32,39.58 -23.24,39.85 -28.00,40.50 -32.76,41.16 -32.86,41.17 -32.97,41.17 -33.07,41.14 -33.17,41.12 -33.26,41.06 -33.35,41.00 -33.42,40.91 -33.48,40.83 -33.52,40.73 -33.55,40.63 -33.55,40.52 -33.55,40.42 -33.52,40.32 -33.48,40.22 -33.42,40.13 -33.36,40.04 -33.27,39.98 -33.18,39.92 -33.08,39.90 -32.98,39.87 -32.87,39.87 -32.77,39.88 -32.67,39.91 -32.57,39.95 -32.49,40.02 -32.41,40.09 -32.35,40.18 -32.29,40.27 -32.27,40.37 -32.25,40.48 -32.26,40.58 -32.27,40.69 -32.31,40.79 -32.36,40.88 -32.43,40.96 -32.50,41.04 -32.59,41.09 -32.69,41.14 -32.79,41.16 -32.90,41.18 -33.00,41.16 -33.11,41.14 -33.20,41.09 -33.30,41.04 -33.37,40.97 -33.44,40.89 -33.49,40.79 -33.53,40.70 -33.55,40.59 -33.56,40.49 -33.54,40.38 -33.51,40.28 -33.46,40.19 -33.41,40.10 -33.33,40.03 -33.25,39.96 -33.15,39.92 -33.05,39.88 -33.05,39.88 -33.05,39.88 -28.32,38.37 -23.58,36.87 -19.94,36.27 -16.30,35.67 -12.49,34.75 -8.68,33.82 -6.62,32.60 -4.56,31.38 -4.50,28.80 -4.43,26.22 -8.63,19.97 -12.83,13.71 -18.37,10.26 -23.92,6.80 -24.03,5.66 -24.15,4.51 -24.37,4.52 -24.58,4.53 -24.80,4.50 -25.01,4.46 -25.21,4.37 -25.41,4.28 -25.58,4.14 -25.75,4.01 -25.88,3.84 -26.01,3.67 -26.10,3.47 -26.19,3.27 -26.23,3.06 -26.27,2.84 -26.25,2.63 -26.24,2.41 -26.17,2.20 -26.11,2.00 -26.00,1.81 -25.88,1.63 -25.73,1.47 -25.58,1.32 -25.39,1.21 -25.20,1.10 -25.00,1.03 -24.79,0.97 -22.41,0.11 -20.03,-0.75 -16.33,-1.40 -12.63,-2.05 -8.80,-2.17 -4.98,-2.30 -2.43,-1.70 0.12,-1.10 0.25,-1.07 0.38,-1.04 0.50,-0.98 0.62,-0.91 0.72,-0.83 0.82,-0.74 0.90,-0.63 0.97,-0.52 1.02,-0.40 1.07,-0.27 1.09,-0.14 1.10,-0.01 1.09,0.12 1.07,0.25 1.03,0.38 0.98,0.50 0.91,0.61 0.83,0.72 0.73,0.81 0.63,0.90 0.52,0.97 0.40,1.03 0.27,1.06 0.14,1.10 0.01,1.10 -0.12,1.10 -0.12,1.10 L -0.12,1.10 Z"/></g><g transform="translate(269.0431273371376 486.6862885109788) rotate(0 -1 1)" stroke="none"><path fill="#1e1e1e" d="M 0.66,0.66 Q 0.66,0.66 0.31,0.80 -0.02,0.95 -0.08,1.00 -0.14,1.05 -0.22,1.08 -0.29,1.11 -0.37,1.12 -0.44,1.14 -0.52,1.13 -0.60,1.13 -0.68,1.11 -0.75,1.08 -0.82,1.04 -0.89,1.00 -0.94,0.94 -1.00,0.89 -1.04,0.82 -1.08,0.75 -1.11,0.68 -1.13,0.60 -1.13,0.52 -1.14,0.44 -1.12,0.37 -1.11,0.29 -1.08,0.22 -1.05,0.14 -1.00,0.08 -0.95,0.02 -0.86,-0.03 -0.78,-0.09 -0.67,-0.13 -0.57,-0.16 -0.47,-0.15 -0.36,-0.15 -0.26,-0.11 -0.16,-0.08 -0.08,-0.01 0.00,0.05 0.05,0.13 0.11,0.22 0.14,0.33 0.16,0.43 0.15,0.54 0.14,0.64 0.10,0.74 0.06,0.84 -0.00,0.92 -0.07,1.00 -0.16,1.05 -0.26,1.10 -0.36,1.12 -0.47,1.14 -0.57,1.13 -0.68,1.11 -0.77,1.06 -0.87,1.02 -0.94,0.94 -1.02,0.87 -1.06,0.77 -1.11,0.68 -1.13,0.57 -1.14,0.47 -1.12,0.36 -1.10,0.26 -1.05,0.16 -1.00,0.07 -0.92,0.00 -0.84,-0.06 -0.74,-0.10 -0.64,-0.14 -0.54,-0.15 -0.43,-0.16 -0.33,-0.14 -0.22,-0.11 -0.13,-0.05 -0.05,0.00 0.01,0.08 0.08,0.16 0.11,0.26 0.15,0.36 0.15,0.47 0.16,0.57 0.13,0.67 0.09,0.78 0.03,0.86 -0.02,0.95 -0.02,0.95 -0.02,0.95 -0.08,1.00 -0.14,1.05 -0.22,1.08 -0.29,1.11 -0.37,1.12 -0.44,1.14 -0.52,1.13 -0.60,1.13 -0.68,1.11 -0.75,1.08 -0.82,1.04 -0.89,1.00 -0.94,0.94 -1.00,0.89 -1.04,0.82 -1.08,0.75 -1.11,0.68 -1.13,0.60 -1.13,0.52 -1.14,0.44 -1.12,0.37 -1.11,0.29 -1.08,0.22 -1.05,0.14 -1.00,0.08 -0.95,0.02 -0.80,-0.31 -0.66,-0.66 -0.57,-0.73 -0.48,-0.80 -0.38,-0.84 -0.27,-0.89 -0.16,-0.91 -0.05,-0.93 0.05,-0.92 0.16,-0.92 0.27,-0.88 0.38,-0.85 0.48,-0.79 0.57,-0.73 0.65,-0.65 0.73,-0.57 0.79,-0.48 0.85,-0.38 0.88,-0.27 0.92,-0.16 0.92,-0.05 0.93,0.05 0.91,0.16 0.89,0.27 0.84,0.38 0.80,0.48 0.73,0.57 0.66,0.66 0.66,0.66 L 0.66,0.66 Z"/></g></svg>